<?xml version="1.0" encoding="UTF-8" standalone="no"?>
<svg
   xmlns:dc="http://purl.org/dc/elements/1.1/"
   xmlns:cc="http://creativecommons.org/ns#"
   xmlns:rdf="http://www.w3.org/1999/02/22-rdf-syntax-ns#"
   xmlns:svg="http://www.w3.org/2000/svg"
   xmlns="http://www.w3.org/2000/svg"
   xmlns:sodipodi="http://sodipodi.sourceforge.net/DTD/sodipodi-0.dtd"
   xmlns:inkscape="http://www.inkscape.org/namespaces/inkscape"
   width="160mm"
   height="151mm"
   viewBox="-80 -75 160 151"
   version="1.1"
   id="svg2"
   inkscape:version="0.91 r13725"
   sodipodi:docname="SlicedSimple_15mm.svg">
  <metadata
     id="metadata12">
    <rdf:RDF>
      <cc:Work
         rdf:about="">
        <dc:format>image/svg+xml</dc:format>
        <dc:type
           rdf:resource="http://purl.org/dc/dcmitype/StillImage" />
        <dc:title>OpenSCAD Model</dc:title>
      </cc:Work>
    </rdf:RDF>
  </metadata>
  <defs
     id="defs10" />
  <sodipodi:namedview
     pagecolor="#ffffff"
     bordercolor="#666666"
     borderopacity="1"
     objecttolerance="10"
     gridtolerance="10"
     guidetolerance="10"
     inkscape:pageopacity="0"
     inkscape:pageshadow="2"
     inkscape:window-width="1600"
     inkscape:window-height="836"
     id="namedview8"
     showgrid="false"
     inkscape:zoom="1.2475882"
     inkscape:cx="262.08692"
     inkscape:cy="276.69832"
     inkscape:window-x="0"
     inkscape:window-y="27"
     inkscape:window-maximized="1"
     inkscape:current-layer="svg2" />
  <title
     id="title4">OpenSCAD Model</title>
  <g
     id="g4160">
    <path
       style="fill:none;stroke:#000000;stroke-opacity:1;stroke-width:0.28222222;stroke-miterlimit:4;stroke-dasharray:none"
       id="path4192"
       d="m 76.825,75 0.1451,-0.0032 0.1451,-0.0098 0.1443,-0.0165 0.1432,-0.0235 0.1506,-0.0321 0.1491,-0.0387 0.147,-0.0458 0.1443,-0.0533 0.1474,-0.0631 0.1443,-0.0701 0.1407,-0.0771 0.1363,-0.0844 0.1345,-0.0932 0.1299,-0.1 0.1245,-0.1065 0.1188,-0.1126 0.1126,-0.1188 0.1065,-0.1246 0.1,-0.1298 0.0933,-0.1345 0.0843,-0.1363 0.0772,-0.1407 0.07,-0.1443 0.0631,-0.1474 0.0533,-0.1443 0.0458,-0.1471 0.0388,-0.1491 0.032,-0.1505 0.0236,-0.1432 0.0164,-0.1444 0.0098,-0.145 L 80,71.825 l 0,-85.6755 -0.0033,-0.1374 -0.0092,-0.1374 -0.015,-0.1372 -0.0209,-0.1366 -0.0267,-0.1356 -0.0325,-0.1341 -0.0382,-0.1324 -0.0438,-0.1302 -0.0497,-0.128 -0.0554,-0.1261 -0.061,-0.1239 -0.0662,-0.1212 -0.0714,-0.1183 -0.0763,-0.115 -0.0809,-0.1115 -0.0854,-0.1077 -48.3121,-57.9745 -0.1134,-0.1288 -0.1203,-0.1227 -0.1267,-0.1161 -0.1328,-0.1086 -0.142,-0.1036 -0.1476,-0.096 -0.1526,-0.0878 -0.157,-0.079 -0.1613,-0.07 -0.1651,-0.0611 -0.1682,-0.0519 -0.1705,-0.0428 -0.1685,-0.0325 -0.1703,-0.023 -0.1713,-0.0138 -0.1715,-0.0047 -57.0258,0 -0.1715,0.0047 -0.1714,0.0138 -0.1702,0.0231 -0.1685,0.0324 -0.1705,0.0428 -0.1682,0.0519 -0.1652,0.0611 -0.1612,0.07 -0.157,0.079 -0.1526,0.0878 -0.1476,0.096 -0.142,0.1036 -0.1328,0.1086 -0.1267,0.1161 -0.1203,0.1227 -0.1134,0.1288 -48.3121,57.9745 -0.0854,0.1077 -0.0809,0.1115 -0.0763,0.115 -0.0714,0.1183 -0.0662,0.1212 -0.061,0.1239 -0.0554,0.1261 -0.0497,0.1281 -0.0438,0.1302 -0.0382,0.1323 -0.0325,0.1342 -0.0267,0.1355 -0.0209,0.1366 -0.015,0.1372 -0.0092,0.1375 -0.0033,0.1373 0,85.6755 0.0033,0.1452 0.0097,0.145 0.0165,0.1443 0.0235,0.1432 0.0321,0.1506 0.0387,0.1491 0.0458,0.147 0.0533,0.1443 0.0631,0.1474 0.07,0.1444 0.0772,0.1406 0.0843,0.1363 0.0933,0.1345 0.1,0.1299 0.1065,0.1245 0.1126,0.1188 0.1188,0.1126 0.1245,0.1065 0.1299,0.1 0.1345,0.0933 0.1363,0.0843 0.1407,0.0772 0.1443,0.0701 0.1474,0.063 0.1443,0.0533 0.147,0.0458 0.1491,0.0388 0.1506,0.032 0.1432,0.0236 0.1444,0.0165 0.145,0.0097 L -76.825,75 Z" />
    <path
       inkscape:connector-curvature="0"
       id="path4190"
       d="m -20,-62.375 c -1.730953,0.06609 -3.104978,-1.855399 -2.4848,-3.4719 0.393843,-1.260789 1.770116,-1.948283 3.035206,-1.7781 13.2297319,0.0071 26.4602569,-0.01428 39.689494,0.0107 1.72078,0.09281 2.915575,2.113762 2.164689,3.664828 -0.478482,1.190391 -1.831568,1.734097 -3.046729,1.574472 -13.1192867,0 -26.2385734,0 -39.35786,0 z"
       style="fill:none;stroke:#000000;stroke-width:0.28222221;stroke-miterlimit:4;stroke-dasharray:none;stroke-opacity:1" />
    <path
       inkscape:connector-curvature="0"
       id="path4188"
       d="m 29.88,-52.3776 c -0.945625,-0.03553 -1.843778,-0.627489 -2.244785,-1.485275 -0.416667,-0.842283 -0.323742,-1.904821 0.230096,-2.663539 0.543159,-0.775802 1.529661,-1.206217 2.467871,-1.077252 0.92294,0.110462 1.756591,0.751624 2.098466,1.616286 0.358208,0.858121 0.207564,1.899896 -0.378475,2.621766 -0.513161,0.652848 -1.343973,1.029639 -2.173173,0.988014 z"
       style="fill:none;stroke:#000000;stroke-width:0.28222221;stroke-miterlimit:4;stroke-dasharray:none;stroke-opacity:1" />
    <path
       inkscape:connector-curvature="0"
       id="path4186"
       d="m -30.12,-52.3776 c -0.945616,-0.03554 -1.843776,-0.627495 -2.244785,-1.485275 -0.416688,-0.842286 -0.323717,-1.904803 0.230096,-2.663539 0.543179,-0.775723 1.529684,-1.206255 2.467863,-1.077184 0.922982,0.110341 1.756569,0.75158 2.098474,1.616218 0.358252,0.858108 0.207621,1.899921 -0.378475,2.621766 -0.513137,0.652886 -1.343964,1.029662 -2.173173,0.988014 z"
       style="fill:none;stroke:#000000;stroke-width:0.28222221;stroke-miterlimit:4;stroke-dasharray:none;stroke-opacity:1" />
    <path
       inkscape:connector-curvature="0"
       id="path4184"
       d="m -20.12,-42.3777 c -1.735048,-0.01297 -3.020192,-2.001497 -2.3207,-3.5885 0.450026,-1.237047 1.835908,-1.828034 3.08284,-1.6588 13.1991541,0.0071 26.399101,-0.01428 39.59776,0.0107 1.720771,0.09281 2.915596,2.113763 2.164689,3.664828 -0.478488,1.190387 -1.83156,1.734117 -3.046729,1.574472 -13.1592763,-0.0018 -26.3186345,0.0036 -39.47786,-0.0027 z"
       style="fill:none;stroke:#000000;stroke-width:0.28222221;stroke-miterlimit:4;stroke-dasharray:none;stroke-opacity:1" />
    <path
       inkscape:connector-curvature="0"
       id="path4182"
       d="m 23.4393,-28.2482 c -1.083696,-0.04013 -2.086383,-0.824846 -2.383226,-1.868261 -0.183019,-0.601429 -0.08687,-1.237073 -0.111074,-1.854969 -0.0052,-1.187136 0.0104,-2.374967 -0.0078,-3.56167 -0.198078,-1.182957 0.560944,-2.419753 1.680168,-2.827113 1.031909,-0.411804 2.298647,-0.08322 2.998203,0.780541 0.469796,0.546565 0.667737,1.283609 0.619117,1.995448 -0.01793,1.634527 -0.01905,3.269586 -0.04754,4.90378 -0.06281,1.109983 -0.912853,2.114038 -1.996866,2.360246 -0.245087,0.06121 -0.498791,0.08371 -0.750977,0.072 z"
       style="fill:none;stroke:#000000;stroke-width:0.28222221;stroke-miterlimit:4;stroke-dasharray:none;stroke-opacity:1" />
    <path
       inkscape:connector-curvature="0"
       id="path4180"
       d="m -23.7007,-28.2481 c -1.083551,-0.04046 -2.086526,-0.824756 -2.383126,-1.86836 -0.183237,-0.60138 -0.08692,-1.237075 -0.111174,-1.854962 -0.0052,-1.187139 0.0104,-2.374972 -0.0078,-3.561678 -0.198005,-1.182959 0.560947,-2.419723 1.680168,-2.827113 1.031897,-0.411721 2.298678,-0.08326 2.998203,0.780541 0.469876,0.546522 0.667692,1.283619 0.619117,1.995446 -0.01789,1.634527 -0.01913,3.269584 -0.04748,4.903779 -0.06296,1.109973 -0.912848,2.114071 -1.996926,2.360248 -0.245096,0.06126 -0.498779,0.08361 -0.750978,0.0721 z"
       style="fill:none;stroke:#000000;stroke-width:0.28222221;stroke-miterlimit:4;stroke-dasharray:none;stroke-opacity:1" />
    <path
       inkscape:connector-curvature="0"
       id="path4178"
       d="m -15.5683,-16.1706 c -0.84112,-0.01926 -1.570139,-0.782209 -1.5507,-1.6234 0.0037,-3.376659 -0.0073,-6.753701 0.0055,-10.130121 0.04729,-0.846907 0.848066,-1.551678 1.693814,-1.493279 0.841098,0.01931 1.570237,0.782114 1.5507,1.6234 -0.0036,3.376657 0.0073,6.753703 -0.0055,10.130116 -0.05469,0.854608 -0.838592,1.545539 -1.693839,1.493284 z"
       style="fill:none;stroke:#000000;stroke-width:0.28222221;stroke-miterlimit:4;stroke-dasharray:none;stroke-opacity:1" />
    <path
       inkscape:connector-curvature="0"
       id="path4176"
       d="m 15.4197,-16.1706 c -0.841105,-0.01927 -1.570162,-0.782206 -1.5507,-1.6234 0.0036,-3.376657 -0.0073,-6.753703 0.0055,-10.130116 0.04732,-0.846897 0.848075,-1.551715 1.693839,-1.493284 0.841207,0.0192 1.57012,0.782199 1.5507,1.6234 -0.0037,3.376659 0.0073,6.753701 -0.0055,10.130121 -0.05442,0.854385 -0.83878,1.545769 -1.693814,1.493279 z"
       style="fill:none;stroke:#000000;stroke-width:0.28222221;stroke-miterlimit:4;stroke-dasharray:none;stroke-opacity:1" />
    <path
       inkscape:connector-curvature="0"
       id="path4174"
       d="M -0.525696,9.18845 C -4.8901436,9.0321328 -9.001674,6.1499301 -10.62398,2.0934632 -11.499215,0.12699866 -11.551853,-2.0539718 -11.5,-4.1683902 c 0.02951,-3.0474936 -0.06075,-6.0983328 0.04833,-9.1436578 0.333517,-4.387668 3.4394351,-8.393387 7.5996031,-9.821252 4.12859415,-1.5245 9.0652964,-0.369564 12.0955904,2.81947 2.2635135,2.287052 3.4144425,5.545836 3.2564735,8.744943 -0.02399,3.3726275 0.0487,6.7477618 -0.03762,10.1187994 C 11.194776,2.9981892 8.064,7.0888197 3.8520713,8.5333069 2.4523432,9.0311787 0.95863574,9.2547899 -0.525696,9.18845 Z"
       style="fill:none;stroke:#000000;stroke-width:0.28222221;stroke-miterlimit:4;stroke-dasharray:none;stroke-opacity:1" />
    <path
       inkscape:connector-curvature="0"
       id="path4172"
       d="M 69.88,5.4635879 C 68.934366,5.4281046 68.036195,4.8361439 67.635208,3.9783346 67.21853,3.1360481 67.311504,2.0735444 67.865303,1.3148067 c 0.543195,-0.77575685 1.529673,-1.20621455 2.467874,-1.07720815 0.922985,0.1104246 1.756582,0.7515972 2.098489,1.61626965 0.358256,0.8581091 0.207567,1.8999402 -0.378514,2.6217821 C 71.540042,5.1285211 70.709165,5.5052634 69.88,5.4635879 Z"
       style="fill:none;stroke:#000000;stroke-width:0.28222221;stroke-miterlimit:4;stroke-dasharray:none;stroke-opacity:1" />
    <path
       inkscape:connector-curvature="0"
       id="path4170"
       d="m -70.12,5.4635883 c -0.945633,-0.035516 -1.843799,-0.6274367 -2.244792,-1.4852533 -0.416641,-0.8422944 -0.323725,-1.9048004 0.230099,-2.6635352 0.543181,-0.77575802 1.529676,-1.20622952 2.467869,-1.07719312 0.922982,0.1103968 1.756593,0.751597 2.09849,1.61626192 0.358262,0.8581092 0.20756,1.8999368 -0.378514,2.6217824 -0.513125,0.6528535 -1.343984,1.0296106 -2.173152,0.9879373 z"
       style="fill:none;stroke:#000000;stroke-width:0.28222221;stroke-miterlimit:4;stroke-dasharray:none;stroke-opacity:1" />
    <path
       inkscape:connector-curvature="0"
       id="path4168"
       d="m -30.12,1.82236 c -0.945637,-0.035491 -1.843798,-0.627476 -2.244793,-1.48527619 -0.416684,-0.84227674 -0.323694,-1.90477291 0.230092,-2.66350571 0.543208,-0.7757445 1.529675,-1.2062084 2.467879,-1.0772167 0.922983,0.1104209 1.756573,0.7516085 2.098488,1.6162709 0.358255,0.85810812 0.20757,1.89993271 -0.378514,2.62177209 C -28.459971,1.4872675 -29.290818,1.864059 -30.12,1.82236 Z"
       style="fill:none;stroke:#000000;stroke-width:0.28222221;stroke-miterlimit:4;stroke-dasharray:none;stroke-opacity:1" />
    <path
       inkscape:connector-curvature="0"
       id="path4166"
       d="M 29.88,1.82236 C 28.934358,1.786868 28.036215,1.1948763 27.635207,0.33708381 c -0.416678,-0.84228267 -0.323703,-1.90478901 0.2301,-2.66352041 0.543193,-0.775761 1.529666,-1.2062204 2.46787,-1.0771931 0.92298,0.1104083 1.756587,0.7515971 2.098489,1.616262 0.358212,0.85812722 0.207566,1.89991743 -0.378514,2.62177209 C 31.540013,1.4872754 30.709192,1.8640247 29.88,1.82236 Z"
       style="fill:none;stroke:#000000;stroke-width:0.28222221;stroke-miterlimit:4;stroke-dasharray:none;stroke-opacity:1" />
    <path
       inkscape:connector-curvature="0"
       id="path4164"
       d="m -52.6143,1.03989 c -0.09105,-0.91766455 0.345265,-1.86353837 1.105189,-2.3866112 0.767934,-0.5519934 1.840108,-0.6325851 2.681674,-0.200845 0.863027,0.4196674 1.446236,1.34614491 1.451532,2.3057791 0.02553,0.9614686 -0.530659,1.9076383 -1.382606,2.3537682 -0.814084,0.4477898 -1.864984,0.4098049 -2.645115,-0.094571 -0.681885,-0.4258114 -1.1399,-1.1771452 -1.210674,-1.97752 z"
       style="fill:none;stroke:#000000;stroke-width:0.28222221;stroke-miterlimit:4;stroke-dasharray:none;stroke-opacity:1" />
    <path
       inkscape:connector-curvature="0"
       id="path4162"
       d="m 15.4197,14.8174 c -0.841104,-0.0193 -1.570148,-0.782199 -1.5507,-1.6234 0.0036,-3.3766533 -0.0073,-6.7536963 0.0055,-10.1301063 0.04742,-0.8467893 0.848046,-1.5517839 1.69384,-1.4932737 0.84111,0.019241 1.570109,0.7821807 1.5507,1.62336 -0.0037,3.3766659 0.0073,6.7537144 -0.0055,10.130141 -0.05464,0.854619 -0.838603,1.545486 -1.693814,1.493279 z"
       style="fill:none;stroke:#000000;stroke-width:0.28222221;stroke-miterlimit:4;stroke-dasharray:none;stroke-opacity:1" />
    <path
       inkscape:connector-curvature="0"
       id="path4160"
       d="m -15.5683,14.8174 c -0.841111,-0.01929 -1.570124,-0.7822 -1.5507,-1.6234 0.0037,-3.3766559 -0.0073,-6.7536943 0.0055,-10.1301112 0.04739,-0.8467894 0.848033,-1.5517658 1.693815,-1.4932588 0.841114,0.019223 1.570123,0.7822007 1.5507,1.62337 -0.0036,3.3766566 0.0073,6.753703 -0.0055,10.130116 -0.05462,0.85462 -0.838649,1.545499 -1.693839,1.493284 z"
       style="fill:none;stroke:#000000;stroke-width:0.28222221;stroke-miterlimit:4;stroke-dasharray:none;stroke-opacity:1" />
    <path
       inkscape:connector-curvature="0"
       id="path4158"
       d="m -23.8203,18.8833 c -1.082922,-0.09041 -2.050977,-0.922957 -2.296844,-1.982309 -0.136711,-0.566982 -0.0559,-1.155543 -0.07786,-1.732418 -0.0052,-1.187137 0.0104,-2.374969 -0.0078,-3.561673 -0.198007,-1.182954 0.560932,-2.4197324 1.680159,-2.8271169 1.031888,-0.4117333 2.298677,-0.083275 2.998197,0.7805178 0.469857,0.5465261 0.667762,1.2836421 0.619132,1.9954741 -0.01788,1.634494 -0.01914,3.269516 -0.04748,4.903678 -0.06287,1.110027 -0.912821,2.11417 -1.99693,2.360349 -0.283938,0.07084 -0.579381,0.08993 -0.870577,0.0635 z"
       style="fill:none;stroke:#000000;stroke-width:0.28222221;stroke-miterlimit:4;stroke-dasharray:none;stroke-opacity:1" />
    <path
       inkscape:connector-curvature="0"
       id="path4156"
       d="m 74.9286,34.0609 c -0.832671,-0.01758 -1.542223,-0.793753 -1.4911,-1.624018 0.0039,-4.023699 -0.0078,-8.047826 0.0058,-12.071258 0.05094,-0.848118 0.889327,-1.535229 1.730817,-1.418203 0.804786,0.07105 1.448861,0.84416 1.388349,1.647256 -0.0043,4.015981 0.0085,8.032441 -0.0064,12.048123 -0.06105,0.812811 -0.813264,1.469092 -1.6275,1.4181 z"
       style="fill:none;stroke:#000000;stroke-width:0.28222221;stroke-miterlimit:4;stroke-dasharray:none;stroke-opacity:1" />
    <path
       inkscape:connector-curvature="0"
       id="path4154"
       d="m -75.0714,34.0609 c -0.832674,-0.01757 -1.542195,-0.793747 -1.4911,-1.624018 0.0043,-4.026502 -0.0085,-8.053471 0.0064,-12.079682 0.05597,-0.844675 0.891672,-1.526219 1.730256,-1.409723 0.804808,0.07094 1.448823,0.844147 1.388344,1.6472 -0.0043,4.015981 0.0085,8.032441 -0.0064,12.048123 -0.06099,0.81276 -0.813308,1.469186 -1.6275,1.4181 z"
       style="fill:none;stroke:#000000;stroke-width:0.28222221;stroke-miterlimit:4;stroke-dasharray:none;stroke-opacity:1" />
    <path
       inkscape:connector-curvature="0"
       id="path4148"
       d="m 49.88,64.9223 c -0.945665,-0.03536 -1.843803,-0.62749 -2.244809,-1.485263 -0.416651,-0.842276 -0.323678,-1.904738 0.230082,-2.663477 0.543257,-0.775711 1.529675,-1.206238 2.46791,-1.077235 0.922964,0.11045 1.756575,0.751627 2.098495,1.616282 0.358246,0.858121 0.207532,1.899904 -0.378505,2.621779 -0.513124,0.65281 -1.343989,1.029786 -2.173173,0.987914 z"
       style="fill:none;stroke:#000000;stroke-width:0.28222221;stroke-miterlimit:4;stroke-dasharray:none;stroke-opacity:1" />
    <path
       inkscape:connector-curvature="0"
       id="path4146"
       d="m -50.12,64.9224 c -0.945585,-0.03558 -1.843808,-0.627486 -2.244738,-1.485298 -0.416677,-0.842263 -0.323723,-1.90479 0.230049,-2.663516 0.543204,-0.775736 1.529657,-1.206254 2.467872,-1.077261 0.922965,0.110426 1.756591,0.751626 2.098465,1.616295 0.358292,0.85812 0.207585,1.899985 -0.378514,2.621836 -0.51316,0.65284 -1.34394,1.029607 -2.173134,0.987944 z"
       style="fill:none;stroke:#000000;stroke-width:0.28222221;stroke-miterlimit:4;stroke-dasharray:none;stroke-opacity:1" />
    <path
       inkscape:connector-curvature="0"
       id="path4144"
       d="m -25,67.625 c -1.826804,0.07674 -3.211967,-2.057378 -2.396763,-3.693803 0.504483,-1.238309 1.931458,-1.726902 3.178063,-1.556197 16.4861013,0.0071 32.9729942,-0.01427 49.4586,0.0107 1.791187,0.09179 2.979915,2.264496 2.0907,3.8217 -0.570472,1.202167 -1.997568,1.573277 -3.223515,1.4176 -16.3690282,0 -32.7380566,0 -49.107085,0 z"
       style="fill:none;stroke:#000000;stroke-width:0.28222221;stroke-miterlimit:4;stroke-dasharray:none;stroke-opacity:1" />
    <path
       inkscape:connector-curvature="0"
       id="path4142"
       d="m 47.4773,0.0746155 c 0.250054,-0.89677471 1.012369,-1.6237505 1.9206,-1.8292955 0.932417,-0.229944 1.974072,0.1092409 2.592054,0.84427707 0.623044,0.70957764 0.807685,1.7665181 0.462296,2.64539573 C 52.128569,2.6080306 51.306956,3.2676127 50.384961,3.3964095 49.449397,3.5443112 48.45426,3.133274 47.89585,2.3682021 47.408717,1.7229923 47.2497,0.85044085 47.4773,0.0746155 Z"
       style="fill:none;stroke:#000000;stroke-width:0.28222221;stroke-miterlimit:4;stroke-dasharray:none;stroke-opacity:1" />
    <path
       inkscape:connector-curvature="0"
       id="path6"
       d="m 23.3197,18.8833 c -1.082923,-0.09043 -2.051007,-0.922961 -2.296873,-1.982328 -0.136708,-0.566981 -0.05586,-1.15553 -0.07783,-1.732401 -0.0052,-1.187136 0.0104,-2.374967 -0.0078,-3.561671 -0.198077,-1.18298 0.560947,-2.4197262 1.680159,-2.8271369 1.031899,-0.4117161 2.298665,-0.083268 2.998194,0.78053 0.469892,0.5465259 0.667713,1.2836449 0.619134,1.9954829 -0.01793,1.634494 -0.01905,3.269519 -0.04754,4.90368 -0.06278,1.110014 -0.91281,2.114149 -1.996869,2.360346 -0.283949,0.07075 -0.579382,0.08997 -0.870577,0.0635 z"
       style="fill:none;stroke:#000000;stroke-width:0.28222221;stroke-miterlimit:4;stroke-dasharray:none;stroke-opacity:1" />
    <path
       inkscape:connector-curvature="0"
       id="path4170-3"
       d="m -70.120145,65.822738 c -0.945633,-0.03552 -1.843799,-0.627437 -2.244792,-1.485253 -0.416641,-0.842295 -0.323725,-1.904801 0.230099,-2.663536 0.543181,-0.775758 1.529676,-1.206229 2.467869,-1.077193 0.922983,0.110397 1.756593,0.751597 2.09849,1.616262 0.358263,0.858109 0.20756,1.899937 -0.378514,2.621782 -0.513124,0.652854 -1.343984,1.029611 -2.173152,0.987938 z"
       style="fill:none;stroke:#000000;stroke-width:0.28222221;stroke-miterlimit:4;stroke-dasharray:none;stroke-opacity:1" />
    <path
       inkscape:connector-curvature="0"
       id="path4170-3-7"
       d="m 69.879856,65.822738 c -0.945633,-0.03552 -1.843799,-0.627437 -2.244792,-1.485253 -0.416641,-0.842295 -0.323725,-1.904801 0.230099,-2.663536 0.543181,-0.775758 1.529676,-1.206229 2.467869,-1.077193 0.922983,0.110397 1.756593,0.751597 2.09849,1.616262 0.358263,0.858109 0.20756,1.899937 -0.378514,2.621782 -0.513124,0.652854 -1.343984,1.029611 -2.173152,0.987938 z"
       style="fill:none;stroke:#000000;stroke-width:0.28222221;stroke-miterlimit:4;stroke-dasharray:none;stroke-opacity:1" />
  </g>
</svg>
