<?xml version="1.0" standalone="no"?>
<!DOCTYPE svg PUBLIC "-//W3C//DTD SVG 1.1//EN" "http://www.w3.org/Graphics/SVG/1.1/DTD/svg11.dtd">
<svg width="65" height="85" viewBox="0 -85 65 85" xmlns="http://www.w3.org/2000/svg" version="1.1">
<title>OpenSCAD Model</title>
<path d="
M 18.4567,-45.1903 L 19.2678,-45.7322 L 19.8097,-46.5433 L 20,-47.5 L 20,-82.5 L 19.8097,-83.4567
 L 19.2678,-84.2678 L 18.4567,-84.8097 L 17.5,-85 L 2.5,-85 L 1.5433,-84.8097 L 0.732239,-84.2678
 L 0.190308,-83.4567 L 0,-82.5 L 0,-47.5 L 0.190308,-46.5433 L 0.732239,-45.7322 L 1.5433,-45.1903
 L 2.5,-45 L 17.5,-45 z
M 9.29079,-73.13 L 8.50298,-73.6738 L 8.05811,-74.5214 L 8.05811,-75.4786 L 8.50298,-76.3262 L 9.29079,-76.87
 L 10.2411,-76.9854 L 11.1361,-76.646 L 11.7709,-75.9294 L 12,-75 L 11.7709,-74.0705 L 11.1361,-73.354
 L 10.2411,-73.0146 z
M 9.29079,-53.13 L 8.50298,-53.6738 L 8.05811,-54.5214 L 8.05811,-55.4786 L 8.50298,-56.3262 L 9.29079,-56.87
 L 10.2411,-56.9854 L 11.1361,-56.646 L 11.7709,-55.9294 L 12,-55 L 11.7709,-54.0705 L 11.1361,-53.354
 L 10.2411,-53.0146 z
M 63.4567,-45.1903 L 64.2678,-45.7322 L 64.8097,-46.5433 L 65,-47.5 L 65,-82.5 L 64.8097,-83.4567
 L 64.2678,-84.2678 L 63.4567,-84.8097 L 62.5,-85 L 27.5,-85 L 26.5433,-84.8097 L 25.7322,-84.2678
 L 25.1903,-83.4567 L 25,-82.5 L 25,-47.5 L 25.1903,-46.5433 L 25.7322,-45.7322 L 26.5433,-45.1903
 L 27.5,-45 L 62.5,-45 z
M 34.2908,-73.13 L 33.503,-73.6738 L 33.0581,-74.5214 L 33.0581,-75.4786 L 33.503,-76.3262 L 34.2908,-76.87
 L 35.2411,-76.9854 L 36.1361,-76.646 L 36.7709,-75.9294 L 37,-75 L 36.7709,-74.0705 L 36.1361,-73.354
 L 35.2411,-73.0146 z
M 54.2908,-73.13 L 53.503,-73.6738 L 53.0581,-74.5214 L 53.0581,-75.4786 L 53.503,-76.3262 L 54.2908,-76.87
 L 55.2411,-76.9854 L 56.1361,-76.646 L 56.7709,-75.9294 L 57,-75 L 56.7709,-74.0705 L 56.1361,-73.354
 L 55.2411,-73.0146 z
M 34.2908,-53.13 L 33.503,-53.6738 L 33.0581,-54.5214 L 33.0581,-55.4786 L 33.503,-56.3262 L 34.2908,-56.87
 L 35.2411,-56.9854 L 36.1361,-56.646 L 36.7709,-55.9294 L 37,-55 L 36.7709,-54.0705 L 36.1361,-53.354
 L 35.2411,-53.0146 z
M 54.2908,-53.13 L 53.503,-53.6738 L 53.0581,-54.5214 L 53.0581,-55.4786 L 53.503,-56.3262 L 54.2908,-56.87
 L 55.2411,-56.9854 L 56.1361,-56.646 L 56.7709,-55.9294 L 57,-55 L 56.7709,-54.0705 L 56.1361,-53.354
 L 55.2411,-53.0146 z
M 58.4567,-0.190308 L 59.2678,-0.732239 L 59.8097,-1.5433 L 60,-2.5 L 60,-37.5 L 59.8097,-38.4567
 L 59.2678,-39.2678 L 58.4567,-39.8097 L 57.5,-40 L 2.5,-40 L 1.5433,-39.8097 L 0.732239,-39.2678
 L 0.190308,-38.4567 L 0,-37.5 L 0,-2.5 L 0.190308,-1.5433 L 0.732239,-0.732239 L 1.5433,-0.190308
 L 2.5,-0 L 57.5,-0 z
M 9.29079,-28.13 L 8.50298,-28.6738 L 8.05811,-29.5214 L 8.05811,-30.4786 L 8.50298,-31.3262 L 9.29079,-31.87
 L 10.2411,-31.9854 L 11.1361,-31.646 L 11.7709,-30.9294 L 12,-30 L 11.7709,-29.0705 L 11.1361,-28.354
 L 10.2411,-28.0146 z
M 29.2908,-28.13 L 28.503,-28.6738 L 28.0581,-29.5214 L 28.0581,-30.4786 L 28.503,-31.3262 L 29.2908,-31.87
 L 30.2411,-31.9854 L 31.1361,-31.646 L 31.7709,-30.9294 L 32,-30 L 31.7709,-29.0705 L 31.1361,-28.354
 L 30.2411,-28.0146 z
M 49.2908,-28.13 L 48.503,-28.6738 L 48.0581,-29.5214 L 48.0581,-30.4786 L 48.503,-31.3262 L 49.2908,-31.87
 L 50.2411,-31.9854 L 51.1361,-31.646 L 51.7709,-30.9294 L 52,-30 L 51.7709,-29.0705 L 51.1361,-28.354
 L 50.2411,-28.0146 z
M 9.29079,-8.12996 L 8.50298,-8.67375 L 8.05811,-9.52136 L 8.05811,-10.4786 L 8.50298,-11.3262 L 9.29079,-11.87
 L 10.2411,-11.9854 L 11.1361,-11.646 L 11.7709,-10.9294 L 12,-10 L 11.7709,-9.07054 L 11.1361,-8.35402
 L 10.2411,-8.01457 z
M 29.2908,-8.12996 L 28.503,-8.67375 L 28.0581,-9.52136 L 28.0581,-10.4786 L 28.503,-11.3262 L 29.2908,-11.87
 L 30.2411,-11.9854 L 31.1361,-11.646 L 31.7709,-10.9294 L 32,-10 L 31.7709,-9.07054 L 31.1361,-8.35402
 L 30.2411,-8.01457 z
M 49.2908,-8.12996 L 48.503,-8.67375 L 48.0581,-9.52136 L 48.0581,-10.4786 L 48.503,-11.3262 L 49.2908,-11.87
 L 50.2411,-11.9854 L 51.1361,-11.646 L 51.7709,-10.9294 L 52,-10 L 51.7709,-9.07054 L 51.1361,-8.35402
 L 50.2411,-8.01457 z
" stroke="black" fill="lightgray" stroke-width="0.5"/></svg>
