<?xml version="1.0" standalone="no"?>
<!DOCTYPE svg PUBLIC "-//W3C//DTD SVG 1.1//EN" "http://www.w3.org/Graphics/SVG/1.1/DTD/svg11.dtd">
<svg width="330mm" height="320mm" viewBox="-165 -160 330 320" xmlns="http://www.w3.org/2000/svg" version="1.1">
<title>OpenSCAD Model</title>
<path d="
M 165,-160 L -165,-160 L -165,160 L 165,160 z
M -142.959,-150.88 L -143.747,-151.424 L -144.192,-152.271 L -144.192,-153.229 L -143.747,-154.076 L -142.959,-154.62
 L -142.009,-154.735 L -141.114,-154.396 L -140.479,-153.679 L -140.25,-152.75 L -140.479,-151.821 L -141.114,-151.104
 L -142.009,-150.765 z
M 157.041,-150.88 L 156.253,-151.424 L 155.808,-152.271 L 155.808,-153.229 L 156.253,-154.076 L 157.041,-154.62
 L 157.991,-154.735 L 158.886,-154.396 L 159.521,-153.679 L 159.75,-152.75 L 159.521,-151.821 L 158.886,-151.104
 L 157.991,-150.765 z
M 141.541,-150.88 L 140.753,-151.424 L 140.308,-152.271 L 140.308,-153.229 L 140.753,-154.076 L 141.541,-154.62
 L 142.491,-154.735 L 143.386,-154.396 L 144.021,-153.679 L 144.25,-152.75 L 144.021,-151.821 L 143.386,-151.104
 L 142.491,-150.765 z
M -158.459,-150.88 L -159.247,-151.424 L -159.692,-152.271 L -159.692,-153.229 L -159.247,-154.076 L -158.459,-154.62
 L -157.509,-154.735 L -156.614,-154.396 L -155.979,-153.679 L -155.75,-152.75 L -155.979,-151.821 L -156.614,-151.104
 L -157.509,-150.765 z
M -142.959,-135.38 L -143.747,-135.924 L -144.192,-136.771 L -144.192,-137.729 L -143.747,-138.576 L -142.959,-139.12
 L -142.009,-139.235 L -141.114,-138.896 L -140.479,-138.179 L -140.25,-137.25 L -140.479,-136.321 L -141.114,-135.604
 L -142.009,-135.265 z
M 157.041,-135.38 L 156.253,-135.924 L 155.808,-136.771 L 155.808,-137.729 L 156.253,-138.576 L 157.041,-139.12
 L 157.991,-139.235 L 158.886,-138.896 L 159.521,-138.179 L 159.75,-137.25 L 159.521,-136.321 L 158.886,-135.604
 L 157.991,-135.265 z
M 141.541,-135.38 L 140.753,-135.924 L 140.308,-136.771 L 140.308,-137.729 L 140.753,-138.576 L 141.541,-139.12
 L 142.491,-139.235 L 143.386,-138.896 L 144.021,-138.179 L 144.25,-137.25 L 144.021,-136.321 L 143.386,-135.604
 L 142.491,-135.265 z
M -158.459,-135.38 L -159.247,-135.924 L -159.692,-136.771 L -159.692,-137.729 L -159.247,-138.576 L -158.459,-139.12
 L -157.509,-139.235 L -156.614,-138.896 L -155.979,-138.179 L -155.75,-137.25 L -155.979,-136.321 L -156.614,-135.604
 L -157.509,-135.265 z
M 148.795,-117.253 L 147.968,-117.793 L 147.362,-118.572 L 147.041,-119.506 L 147.041,-120.494 L 147.362,-121.428
 L 147.968,-122.207 L 148.795,-122.747 L 149.752,-122.99 L 150.736,-122.908 L 151.641,-122.511 L 152.367,-121.843
 L 152.837,-120.974 L 153,-120 L 152.837,-119.026 L 152.367,-118.157 L 151.641,-117.489 L 150.736,-117.092
 L 149.752,-117.01 z
M -151.205,-117.253 L -152.032,-117.793 L -152.638,-118.572 L -152.959,-119.506 L -152.959,-120.494 L -152.638,-121.428
 L -152.032,-122.207 L -151.205,-122.747 L -150.248,-122.99 L -149.264,-122.908 L -148.359,-122.511 L -147.633,-121.843
 L -147.163,-120.974 L -147,-120 L -147.163,-119.026 L -147.633,-118.157 L -148.359,-117.489 L -149.264,-117.092
 L -150.248,-117.01 z
M -142.959,109.12 L -143.747,108.576 L -144.192,107.729 L -144.192,106.771 L -143.747,105.924 L -142.959,105.38
 L -142.009,105.265 L -141.114,105.604 L -140.479,106.321 L -140.25,107.25 L -140.479,108.179 L -141.114,108.896
 L -142.009,109.235 z
M -158.459,109.12 L -159.247,108.576 L -159.692,107.729 L -159.692,106.771 L -159.247,105.924 L -158.459,105.38
 L -157.509,105.265 L -156.614,105.604 L -155.979,106.321 L -155.75,107.25 L -155.979,108.179 L -156.614,108.896
 L -157.509,109.235 z
M 141.541,109.12 L 140.753,108.576 L 140.308,107.729 L 140.308,106.771 L 140.753,105.924 L 141.541,105.38
 L 142.491,105.265 L 143.386,105.604 L 144.021,106.321 L 144.25,107.25 L 144.021,108.179 L 143.386,108.896
 L 142.491,109.235 z
M 157.041,109.12 L 156.253,108.576 L 155.808,107.729 L 155.808,106.771 L 156.253,105.924 L 157.041,105.38
 L 157.991,105.265 L 158.886,105.604 L 159.521,106.321 L 159.75,107.25 L 159.521,108.179 L 158.886,108.896
 L 157.991,109.235 z
M -142.959,124.62 L -143.747,124.076 L -144.192,123.229 L -144.192,122.271 L -143.747,121.424 L -142.959,120.88
 L -142.009,120.765 L -141.114,121.104 L -140.479,121.821 L -140.25,122.75 L -140.479,123.679 L -141.114,124.396
 L -142.009,124.735 z
M -158.459,124.62 L -159.247,124.076 L -159.692,123.229 L -159.692,122.271 L -159.247,121.424 L -158.459,120.88
 L -157.509,120.765 L -156.614,121.104 L -155.979,121.821 L -155.75,122.75 L -155.979,123.679 L -156.614,124.396
 L -157.509,124.735 z
M 141.541,124.62 L 140.753,124.076 L 140.308,123.229 L 140.308,122.271 L 140.753,121.424 L 141.541,120.88
 L 142.491,120.765 L 143.386,121.104 L 144.021,121.821 L 144.25,122.75 L 144.021,123.679 L 143.386,124.396
 L 142.491,124.735 z
M 157.041,124.62 L 156.253,124.076 L 155.808,123.229 L 155.808,122.271 L 156.253,121.424 L 157.041,120.88
 L 157.991,120.765 L 158.886,121.104 L 159.521,121.821 L 159.75,122.75 L 159.521,123.679 L 158.886,124.396
 L 157.991,124.735 z
M -151.205,142.747 L -152.032,142.207 L -152.638,141.428 L -152.959,140.494 L -152.959,139.506 L -152.638,138.572
 L -152.032,137.793 L -151.205,137.253 L -150.248,137.01 L -149.264,137.092 L -148.359,137.489 L -147.633,138.157
 L -147.163,139.026 L -147,140 L -147.163,140.974 L -147.633,141.843 L -148.359,142.511 L -149.264,142.908
 L -150.248,142.99 z
M 148.795,142.747 L 147.968,142.207 L 147.362,141.428 L 147.041,140.494 L 147.041,139.506 L 147.362,138.572
 L 147.968,137.793 L 148.795,137.253 L 149.752,137.01 L 150.736,137.092 L 151.641,137.489 L 152.367,138.157
 L 152.837,139.026 L 153,140 L 152.837,140.974 L 152.367,141.843 L 151.641,142.511 L 150.736,142.908
 L 149.752,142.99 z
" stroke="black" fill="lightgray" stroke-width="0.5"/>
</svg>
