<?xml version="1.0" standalone="no"?>
<!DOCTYPE svg PUBLIC "-//W3C//DTD SVG 1.1//EN" "http://www.w3.org/Graphics/SVG/1.1/DTD/svg11.dtd">
<svg width="80mm" height="100mm" viewBox="-40 -50 80 100" xmlns="http://www.w3.org/2000/svg" version="1.1">
<title>OpenSCAD Model</title>
<path d="
M 35.9754,49.9039 L 36.9134,49.6194 L 37.7778,49.1573 L 38.5355,48.5355 L 39.1573,47.7778 L 39.6194,46.9134
 L 39.9039,45.9754 L 40,45 L 40,-45 L 39.9039,-45.9754 L 39.6194,-46.9134 L 39.1573,-47.7778
 L 38.5355,-48.5355 L 37.7778,-49.1573 L 36.9134,-49.6194 L 35.9754,-49.9039 L 35,-50 L -35,-50
 L -35.9754,-49.9039 L -36.9134,-49.6194 L -37.7778,-49.1573 L -38.5355,-48.5355 L -39.1573,-47.7778 L -39.6194,-46.9134
 L -39.9039,-45.9754 L -40,-45 L -40,45 L -39.9039,45.9754 L -39.6194,46.9134 L -39.1573,47.7778
 L -38.5355,48.5355 L -37.7778,49.1573 L -36.9134,49.6194 L -35.9754,49.9039 L -35,50 L 35,50
 z
M -31.2067,-37.6903 L -32.0178,-38.2322 L -32.5597,-39.0433 L -32.75,-40 L -32.5597,-40.9567 L -32.0178,-41.7678
 L -31.2067,-42.3097 L -30.25,-42.5 L -29.2933,-42.3097 L -28.4822,-41.7678 L -27.9403,-40.9567 L -27.75,-40
 L -27.9403,-39.0433 L -28.4822,-38.2322 L -29.2933,-37.6903 L -30.25,-37.5 z
M 29.2933,-37.6903 L 28.4822,-38.2322 L 27.9403,-39.0433 L 27.75,-40 L 27.9403,-40.9567 L 28.4822,-41.7678
 L 29.2933,-42.3097 L 30.25,-42.5 L 31.2067,-42.3097 L 32.0178,-41.7678 L 32.5597,-40.9567 L 32.75,-40
 L 32.5597,-39.0433 L 32.0178,-38.2322 L 31.2067,-37.6903 L 30.25,-37.5 z
M -21.0478,-38.7908 L -21.5352,-39.5492 L -21.5352,-40.4508 L -21.0478,-41.2092 L -20.2277,-41.5837 L -19.3353,-41.4554
 L -18.654,-40.865 L -18.4,-40 L -18.654,-39.135 L -19.3353,-38.5446 L -20.2277,-38.4163 z
M -1.04778,-38.7908 L -1.53519,-39.5492 L -1.53519,-40.4508 L -1.04778,-41.2092 L -0.227692,-41.5837 L 0.664658,-41.4554
 L 1.34599,-40.865 L 1.59999,-40 L 1.34599,-39.135 L 0.664658,-38.5446 L -0.227692,-38.4163 z
M 8.95221,-38.7908 L 8.4648,-39.5492 L 8.4648,-40.4508 L 8.95221,-41.2092 L 9.77229,-41.5837 L 10.6647,-41.4554
 L 11.346,-40.865 L 11.6,-40 L 11.346,-39.135 L 10.6647,-38.5446 L 9.77229,-38.4163 z
M -11.0478,-38.7908 L -11.5352,-39.5492 L -11.5352,-40.4508 L -11.0478,-41.2092 L -10.2277,-41.5837 L -9.33533,-41.4554
 L -8.65399,-40.865 L -8.39999,-40 L -8.65399,-39.135 L -9.33533,-38.5446 L -10.2277,-38.4163 z
M 18.9522,-38.7908 L 18.4648,-39.5492 L 18.4648,-40.4508 L 18.9522,-41.2092 L 19.7723,-41.5837 L 20.6647,-41.4554
 L 21.346,-40.865 L 21.6,-40 L 21.346,-39.135 L 20.6647,-38.5446 L 19.7723,-38.4163 z
M -11.0478,-28.7908 L -11.5352,-29.5492 L -11.5352,-30.4508 L -11.0478,-31.2092 L -10.2277,-31.5837 L -9.33533,-31.4554
 L -8.65399,-30.865 L -8.39999,-30 L -8.65399,-29.135 L -9.33533,-28.5446 L -10.2277,-28.4163 z
M 18.9522,-28.7908 L 18.4648,-29.5492 L 18.4648,-30.4508 L 18.9522,-31.2092 L 19.7723,-31.5837 L 20.6647,-31.4554
 L 21.346,-30.865 L 21.6,-30 L 21.346,-29.135 L 20.6647,-28.5446 L 19.7723,-28.4163 z
M 8.95221,-28.7908 L 8.4648,-29.5492 L 8.4648,-30.4508 L 8.95221,-31.2092 L 9.77229,-31.5837 L 10.6647,-31.4554
 L 11.346,-30.865 L 11.6,-30 L 11.346,-29.135 L 10.6647,-28.5446 L 9.77229,-28.4163 z
M -1.04778,-28.7908 L -1.53519,-29.5492 L -1.53519,-30.4508 L -1.04778,-31.2092 L -0.227692,-31.5837 L 0.664658,-31.4554
 L 1.34599,-30.865 L 1.59999,-30 L 1.34599,-29.135 L 0.664658,-28.5446 L -0.227692,-28.4163 z
M -21.0478,-28.7908 L -21.5352,-29.5492 L -21.5352,-30.4508 L -21.0478,-31.2092 L -20.2277,-31.5837 L -19.3353,-31.4554
 L -18.654,-30.865 L -18.4,-30 L -18.654,-29.135 L -19.3353,-28.5446 L -20.2277,-28.4163 z
M 18.9522,-18.7908 L 18.4648,-19.5492 L 18.4648,-20.4508 L 18.9522,-21.2092 L 19.7723,-21.5837 L 20.6647,-21.4554
 L 21.346,-20.865 L 21.6,-20 L 21.346,-19.135 L 20.6647,-18.5446 L 19.7723,-18.4163 z
M -11.0478,-18.7908 L -11.5352,-19.5492 L -11.5352,-20.4508 L -11.0478,-21.2092 L -10.2277,-21.5837 L -9.33533,-21.4554
 L -8.65399,-20.865 L -8.39999,-20 L -8.65399,-19.135 L -9.33533,-18.5446 L -10.2277,-18.4163 z
M 8.95221,-18.7908 L 8.4648,-19.5492 L 8.4648,-20.4508 L 8.95221,-21.2092 L 9.77229,-21.5837 L 10.6647,-21.4554
 L 11.346,-20.865 L 11.6,-20 L 11.346,-19.135 L 10.6647,-18.5446 L 9.77229,-18.4163 z
M -21.0478,-18.7908 L -21.5352,-19.5492 L -21.5352,-20.4508 L -21.0478,-21.2092 L -20.2277,-21.5837 L -19.3353,-21.4554
 L -18.654,-20.865 L -18.4,-20 L -18.654,-19.135 L -19.3353,-18.5446 L -20.2277,-18.4163 z
M -1.04778,-18.7908 L -1.53519,-19.5492 L -1.53519,-20.4508 L -1.04778,-21.2092 L -0.227692,-21.5837 L 0.664658,-21.4554
 L 1.34599,-20.865 L 1.59999,-20 L 1.34599,-19.135 L 0.664658,-18.5446 L -0.227692,-18.4163 z
M -11.0478,-8.79079 L -11.5352,-9.54922 L -11.5352,-10.4508 L -11.0478,-11.2092 L -10.2277,-11.5837 L -9.33533,-11.4554
 L -8.65399,-10.865 L -8.39999,-10 L -8.65399,-9.13496 L -9.33533,-8.54459 L -10.2277,-8.41628 z
M 8.95221,-8.79079 L 8.4648,-9.54922 L 8.4648,-10.4508 L 8.95221,-11.2092 L 9.77229,-11.5837 L 10.6647,-11.4554
 L 11.346,-10.865 L 11.6,-10 L 11.346,-9.13496 L 10.6647,-8.54459 L 9.77229,-8.41628 z
M 18.9522,-8.79079 L 18.4648,-9.54922 L 18.4648,-10.4508 L 18.9522,-11.2092 L 19.7723,-11.5837 L 20.6647,-11.4554
 L 21.346,-10.865 L 21.6,-10 L 21.346,-9.13496 L 20.6647,-8.54459 L 19.7723,-8.41628 z
M -21.0478,-8.79079 L -21.5352,-9.54922 L -21.5352,-10.4508 L -21.0478,-11.2092 L -20.2277,-11.5837 L -19.3353,-11.4554
 L -18.654,-10.865 L -18.4,-10 L -18.654,-9.13496 L -19.3353,-8.54459 L -20.2277,-8.41628 z
M -1.04778,-8.79079 L -1.53519,-9.54922 L -1.53519,-10.4508 L -1.04778,-11.2092 L -0.227692,-11.5837 L 0.664658,-11.4554
 L 1.34599,-10.865 L 1.59999,-10 L 1.34599,-9.13496 L 0.664658,-8.54459 L -0.227692,-8.41628 z
M 8.95221,1.2092 L 8.4648,0.45076 L 8.4648,-0.45076 L 8.95221,-1.2092 L 9.77229,-1.58371 L 10.6647,-1.4554
 L 11.346,-0.865021 L 11.6,-0 L 11.346,0.865021 L 10.6647,1.4554 L 9.77229,1.58371 z
M -21.0478,1.2092 L -21.5352,0.45076 L -21.5352,-0.45076 L -21.0478,-1.2092 L -20.2277,-1.58371 L -19.3353,-1.4554
 L -18.654,-0.865021 L -18.4,-0 L -18.654,0.865021 L -19.3353,1.4554 L -20.2277,1.58371 z
M -11.0478,1.2092 L -11.5352,0.45076 L -11.5352,-0.45076 L -11.0478,-1.2092 L -10.2277,-1.58371 L -9.33533,-1.4554
 L -8.65399,-0.865021 L -8.39999,-0 L -8.65399,0.865021 L -9.33533,1.4554 L -10.2277,1.58371 z
M -1.04778,1.2092 L -1.53519,0.45076 L -1.53519,-0.45076 L -1.04778,-1.2092 L -0.227692,-1.58371 L 0.664658,-1.4554
 L 1.34599,-0.865021 L 1.59999,-0 L 1.34599,0.865021 L 0.664658,1.4554 L -0.227692,1.58371 z
M 18.9522,1.2092 L 18.4648,0.45076 L 18.4648,-0.45076 L 18.9522,-1.2092 L 19.7723,-1.58371 L 20.6647,-1.4554
 L 21.346,-0.865021 L 21.6,-0 L 21.346,0.865021 L 20.6647,1.4554 L 19.7723,1.58371 z
M 18.9522,11.2092 L 18.4648,10.4508 L 18.4648,9.54922 L 18.9522,8.79079 L 19.7723,8.41628 L 20.6647,8.54459
 L 21.346,9.13496 L 21.6,10 L 21.346,10.865 L 20.6647,11.4554 L 19.7723,11.5837 z
M -11.0478,11.2092 L -11.5352,10.4508 L -11.5352,9.54922 L -11.0478,8.79079 L -10.2277,8.41628 L -9.33533,8.54459
 L -8.65399,9.13496 L -8.39999,10 L -8.65399,10.865 L -9.33533,11.4554 L -10.2277,11.5837 z
M 8.95221,11.2092 L 8.4648,10.4508 L 8.4648,9.54922 L 8.95221,8.79079 L 9.77229,8.41628 L 10.6647,8.54459
 L 11.346,9.13496 L 11.6,10 L 11.346,10.865 L 10.6647,11.4554 L 9.77229,11.5837 z
M -1.04778,11.2092 L -1.53519,10.4508 L -1.53519,9.54922 L -1.04778,8.79079 L -0.227692,8.41628 L 0.664658,8.54459
 L 1.34599,9.13496 L 1.59999,10 L 1.34599,10.865 L 0.664658,11.4554 L -0.227692,11.5837 z
M -21.0478,11.2092 L -21.5352,10.4508 L -21.5352,9.54922 L -21.0478,8.79079 L -20.2277,8.41628 L -19.3353,8.54459
 L -18.654,9.13496 L -18.4,10 L -18.654,10.865 L -19.3353,11.4554 L -20.2277,11.5837 z
M -1.04778,21.2092 L -1.53519,20.4508 L -1.53519,19.5492 L -1.04778,18.7908 L -0.227692,18.4163 L 0.664658,18.5446
 L 1.34599,19.135 L 1.59999,20 L 1.34599,20.865 L 0.664658,21.4554 L -0.227692,21.5837 z
M -21.0478,21.2092 L -21.5352,20.4508 L -21.5352,19.5492 L -21.0478,18.7908 L -20.2277,18.4163 L -19.3353,18.5446
 L -18.654,19.135 L -18.4,20 L -18.654,20.865 L -19.3353,21.4554 L -20.2277,21.5837 z
M 8.95221,21.2092 L 8.4648,20.4508 L 8.4648,19.5492 L 8.95221,18.7908 L 9.77229,18.4163 L 10.6647,18.5446
 L 11.346,19.135 L 11.6,20 L 11.346,20.865 L 10.6647,21.4554 L 9.77229,21.5837 z
M -11.0478,21.2092 L -11.5352,20.4508 L -11.5352,19.5492 L -11.0478,18.7908 L -10.2277,18.4163 L -9.33533,18.5446
 L -8.65399,19.135 L -8.39999,20 L -8.65399,20.865 L -9.33533,21.4554 L -10.2277,21.5837 z
M 18.9522,21.2092 L 18.4648,20.4508 L 18.4648,19.5492 L 18.9522,18.7908 L 19.7723,18.4163 L 20.6647,18.5446
 L 21.346,19.135 L 21.6,20 L 21.346,20.865 L 20.6647,21.4554 L 19.7723,21.5837 z
M -1.04778,31.2092 L -1.53519,30.4508 L -1.53519,29.5492 L -1.04778,28.7908 L -0.227692,28.4163 L 0.664658,28.5446
 L 1.34599,29.135 L 1.59999,30 L 1.34599,30.865 L 0.664658,31.4554 L -0.227692,31.5837 z
M 8.95221,31.2092 L 8.4648,30.4508 L 8.4648,29.5492 L 8.95221,28.7908 L 9.77229,28.4163 L 10.6647,28.5446
 L 11.346,29.135 L 11.6,30 L 11.346,30.865 L 10.6647,31.4554 L 9.77229,31.5837 z
M 18.9522,31.2092 L 18.4648,30.4508 L 18.4648,29.5492 L 18.9522,28.7908 L 19.7723,28.4163 L 20.6647,28.5446
 L 21.346,29.135 L 21.6,30 L 21.346,30.865 L 20.6647,31.4554 L 19.7723,31.5837 z
M -21.0478,31.2092 L -21.5352,30.4508 L -21.5352,29.5492 L -21.0478,28.7908 L -20.2277,28.4163 L -19.3353,28.5446
 L -18.654,29.135 L -18.4,30 L -18.654,30.865 L -19.3353,31.4554 L -20.2277,31.5837 z
M -11.0478,31.2092 L -11.5352,30.4508 L -11.5352,29.5492 L -11.0478,28.7908 L -10.2277,28.4163 L -9.33533,28.5446
 L -8.65399,29.135 L -8.39999,30 L -8.65399,30.865 L -9.33533,31.4554 L -10.2277,31.5837 z
M 29.2933,42.3097 L 28.4822,41.7678 L 27.9403,40.9567 L 27.75,40 L 27.9403,39.0433 L 28.4822,38.2322
 L 29.2933,37.6903 L 30.25,37.5 L 31.2067,37.6903 L 32.0178,38.2322 L 32.5597,39.0433 L 32.75,40
 L 32.5597,40.9567 L 32.0178,41.7678 L 31.2067,42.3097 L 30.25,42.5 z
M -31.2067,42.3097 L -32.0178,41.7678 L -32.5597,40.9567 L -32.75,40 L -32.5597,39.0433 L -32.0178,38.2322
 L -31.2067,37.6903 L -30.25,37.5 L -29.2933,37.6903 L -28.4822,38.2322 L -27.9403,39.0433 L -27.75,40
 L -27.9403,40.9567 L -28.4822,41.7678 L -29.2933,42.3097 L -30.25,42.5 z
M -21.0478,41.2092 L -21.5352,40.4508 L -21.5352,39.5492 L -21.0478,38.7908 L -20.2277,38.4163 L -19.3353,38.5446
 L -18.654,39.135 L -18.4,40 L -18.654,40.865 L -19.3353,41.4554 L -20.2277,41.5837 z
M 8.95221,41.2092 L 8.4648,40.4508 L 8.4648,39.5492 L 8.95221,38.7908 L 9.77229,38.4163 L 10.6647,38.5446
 L 11.346,39.135 L 11.6,40 L 11.346,40.865 L 10.6647,41.4554 L 9.77229,41.5837 z
M -11.0478,41.2092 L -11.5352,40.4508 L -11.5352,39.5492 L -11.0478,38.7908 L -10.2277,38.4163 L -9.33533,38.5446
 L -8.65399,39.135 L -8.39999,40 L -8.65399,40.865 L -9.33533,41.4554 L -10.2277,41.5837 z
M -1.04778,41.2092 L -1.53519,40.4508 L -1.53519,39.5492 L -1.04778,38.7908 L -0.227692,38.4163 L 0.664658,38.5446
 L 1.34599,39.135 L 1.59999,40 L 1.34599,40.865 L 0.664658,41.4554 L -0.227692,41.5837 z
M 18.9522,41.2092 L 18.4648,40.4508 L 18.4648,39.5492 L 18.9522,38.7908 L 19.7723,38.4163 L 20.6647,38.5446
 L 21.346,39.135 L 21.6,40 L 21.346,40.865 L 20.6647,41.4554 L 19.7723,41.5837 z
" stroke="black" fill="lightgray" stroke-width="0.5"/></svg>
