  0
SECTION
  2
HEADER
  9
$ACADVER
  1
AC1009
  9
$EXTMIN
 10
0.0
 20
0.0
 30
0.0
  9
$EXTMAX
 10
1000.0
 20
1000.0
 30
0.0
  9
$FILLMODE
 70
 0
  9
$SPLFRAME
 70
 1
  0
ENDSEC
  0
SECTION
  2
TABLES
  0
TABLE
  2
LAYER
 70
1
  0
LAYER
  2
0
 70
     0
 62
     7
  6
CONTINUOUS
  0
ENDTAB
  0
ENDSEC
  0
SECTION
  2
ENTITIES
  0
POLYLINE
  8
0
 62
     0
 66
     1
 10
0
 20
0
 30
0.0
 70
     1
 40
0.8
 41
0.8
  0
VERTEX
  8
0
 10
6.17974
 20
0.00553386
 30
0.0
 40
0.0111111
 41
0.0111111
  0
VERTEX
  8
0
 10
6.18549
 20
0.00569661
 30
0.0
 40
0.0111111
 41
0.0111111
  0
VERTEX
  8
0
 10
6.19119
 20
0.00607639
 30
0.0
 40
0.0111111
 41
0.0111111
  0
VERTEX
  8
0
 10
6.19689
 20
0.00672743
 30
0.0
 40
0.0111111
 41
0.0111111
  0
VERTEX
  8
0
 10
6.20253
 20
0.00764974
 30
0.0
 40
0.0111111
 41
0.0111111
  0
VERTEX
  8
0
 10
6.20844
 20
0.00889757
 30
0.0
 40
0.0111111
 41
0.0111111
  0
VERTEX
  8
0
 10
6.21431
 20
0.0104167
 30
0.0
 40
0.0111111
 41
0.0111111
  0
VERTEX
  8
0
 10
6.22011
 20
0.012207
 30
0.0
 40
0.0111111
 41
0.0111111
  0
VERTEX
  8
0
 10
6.22581
 20
0.0143229
 30
0.0
 40
0.0111111
 41
0.0111111
  0
VERTEX
  8
0
 10
6.23161
 20
0.0168186
 30
0.0
 40
0.0111111
 41
0.0111111
  0
VERTEX
  8
0
 10
6.23725
 20
0.0195856
 30
0.0
 40
0.0111111
 41
0.0111111
  0
VERTEX
  8
0
 10
6.24278
 20
0.0226237
 30
0.0
 40
0.0111111
 41
0.0111111
  0
VERTEX
  8
0
 10
6.24815
 20
0.0259332
 30
0.0
 40
0.0111111
 41
0.0111111
  0
VERTEX
  8
0
 10
6.25347
 20
0.0295682
 30
0.0
 40
0.0111111
 41
0.0111111
  0
VERTEX
  8
0
 10
6.25857
 20
0.0335286
 30
0.0
 40
0.0111111
 41
0.0111111
  0
VERTEX
  8
0
 10
6.26346
 20
0.0377061
 30
0.0
 40
0.0111111
 41
0.0111111
  0
VERTEX
  8
0
 10
6.26818
 20
0.042155
 30
0.0
 40
0.0111111
 41
0.0111111
  0
VERTEX
  8
0
 10
6.27257
 20
0.0468207
 30
0.0
 40
0.0111111
 41
0.0111111
  0
VERTEX
  8
0
 10
6.27681
 20
0.0517578
 30
0.0
 40
0.0111111
 41
0.0111111
  0
VERTEX
  8
0
 10
6.28071
 20
0.0568576
 30
0.0
 40
0.0111111
 41
0.0111111
  0
VERTEX
  8
0
 10
6.2844
 20
0.0621203
 30
0.0
 40
0.0111111
 41
0.0111111
  0
VERTEX
  8
0
 10
6.28771
 20
0.0674914
 30
0.0
 40
0.0111111
 41
0.0111111
  0
VERTEX
  8
0
 10
6.29075
 20
0.0730251
 30
0.0
 40
0.0111111
 41
0.0111111
  0
VERTEX
  8
0
 10
6.29351
 20
0.0787218
 30
0.0
 40
0.0111111
 41
0.0111111
  0
VERTEX
  8
0
 10
6.29601
 20
0.0845269
 30
0.0
 40
0.0111111
 41
0.0111111
  0
VERTEX
  8
0
 10
6.29807
 20
0.0902235
 30
0.0
 40
0.0111111
 41
0.0111111
  0
VERTEX
  8
0
 10
6.29992
 20
0.0960286
 30
0.0
 40
0.0111111
 41
0.0111111
  0
VERTEX
  8
0
 10
6.30143
 20
0.101888
 30
0.0
 40
0.0111111
 41
0.0111111
  0
VERTEX
  8
0
 10
6.30268
 20
0.107802
 30
0.0
 40
0.0111111
 41
0.0111111
  0
VERTEX
  8
0
 10
6.3036
 20
0.113444
 30
0.0
 40
0.0111111
 41
0.0111111
  0
VERTEX
  8
0
 10
6.30425
 20
0.119141
 30
0.0
 40
0.0111111
 41
0.0111111
  0
VERTEX
  8
0
 10
6.30464
 20
0.124837
 30
0.0
 40
0.0111111
 41
0.0111111
  0
VERTEX
  8
0
 10
6.30474
 20
0.130534
 30
0.0
 40
0.0111111
 41
0.0111111
  0
VERTEX
  8
0
 10
6.30474
 20
3.50358
 30
0.0
 40
0.0111111
 41
0.0111111
  0
VERTEX
  8
0
 10
6.30464
 20
3.509
 30
0.0
 40
0.0111111
 41
0.0111111
  0
VERTEX
  8
0
 10
6.30425
 20
3.51443
 30
0.0
 40
0.0111111
 41
0.0111111
  0
VERTEX
  8
0
 10
6.30371
 20
3.51981
 30
0.0
 40
0.0111111
 41
0.0111111
  0
VERTEX
  8
0
 10
6.30285
 20
3.52518
 30
0.0
 40
0.0111111
 41
0.0111111
  0
VERTEX
  8
0
 10
6.30181
 20
3.53054
 30
0.0
 40
0.0111111
 41
0.0111111
  0
VERTEX
  8
0
 10
6.30051
 20
3.53581
 30
0.0
 40
0.0111111
 41
0.0111111
  0
VERTEX
  8
0
 10
6.29904
 20
3.54101
 30
0.0
 40
0.0111111
 41
0.0111111
  0
VERTEX
  8
0
 10
6.29731
 20
3.54617
 30
0.0
 40
0.0111111
 41
0.0111111
  0
VERTEX
  8
0
 10
6.29536
 20
3.55122
 30
0.0
 40
0.0111111
 41
0.0111111
  0
VERTEX
  8
0
 10
6.29318
 20
3.55615
 30
0.0
 40
0.0111111
 41
0.0111111
  0
VERTEX
  8
0
 10
6.29075
 20
3.56104
 30
0.0
 40
0.0111111
 41
0.0111111
  0
VERTEX
  8
0
 10
6.28814
 20
3.56581
 30
0.0
 40
0.0111111
 41
0.0111111
  0
VERTEX
  8
0
 10
6.28538
 20
3.57047
 30
0.0
 40
0.0111111
 41
0.0111111
  0
VERTEX
  8
0
 10
6.28233
 20
3.57497
 30
0.0
 40
0.0111111
 41
0.0111111
  0
VERTEX
  8
0
 10
6.27914
 20
3.57937
 30
0.0
 40
0.0111111
 41
0.0111111
  0
VERTEX
  8
0
 10
6.27576
 20
3.58361
 30
0.0
 40
0.0111111
 41
0.0111111
  0
VERTEX
  8
0
 10
4.37375
 20
5.8661
 30
0.0
 40
0.0111111
 41
0.0111111
  0
VERTEX
  8
0
 10
4.36931
 20
5.87115
 30
0.0
 40
0.0111111
 41
0.0111111
  0
VERTEX
  8
0
 10
4.36453
 20
5.87597
 30
0.0
 40
0.0111111
 41
0.0111111
  0
VERTEX
  8
0
 10
4.35954
 20
5.88053
 30
0.0
 40
0.0111111
 41
0.0111111
  0
VERTEX
  8
0
 10
4.35433
 20
5.88482
 30
0.0
 40
0.0111111
 41
0.0111111
  0
VERTEX
  8
0
 10
4.34874
 20
5.88889
 30
0.0
 40
0.0111111
 41
0.0111111
  0
VERTEX
  8
0
 10
4.34293
 20
5.89268
 30
0.0
 40
0.0111111
 41
0.0111111
  0
VERTEX
  8
0
 10
4.33692
 20
5.89615
 30
0.0
 40
0.0111111
 41
0.0111111
  0
VERTEX
  8
0
 10
4.33074
 20
5.89925
 30
0.0
 40
0.0111111
 41
0.0111111
  0
VERTEX
  8
0
 10
4.32438
 20
5.90201
 30
0.0
 40
0.0111111
 41
0.0111111
  0
VERTEX
  8
0
 10
4.31787
 20
5.9044
 30
0.0
 40
0.0111111
 41
0.0111111
  0
VERTEX
  8
0
 10
4.31125
 20
5.90647
 30
0.0
 40
0.0111111
 41
0.0111111
  0
VERTEX
  8
0
 10
4.30453
 20
5.90815
 30
0.0
 40
0.0111111
 41
0.0111111
  0
VERTEX
  8
0
 10
4.2979
 20
5.9094
 30
0.0
 40
0.0111111
 41
0.0111111
  0
VERTEX
  8
0
 10
4.29124
 20
5.91032
 30
0.0
 40
0.0111111
 41
0.0111111
  0
VERTEX
  8
0
 10
4.28444
 20
5.91086
 30
0.0
 40
0.0111111
 41
0.0111111
  0
VERTEX
  8
0
 10
4.27772
 20
5.91108
 30
0.0
 40
0.0111111
 41
0.0111111
  0
VERTEX
  8
0
 10
2.03261
 20
5.91108
 30
0.0
 40
0.0111111
 41
0.0111111
  0
VERTEX
  8
0
 10
2.02588
 20
5.91086
 30
0.0
 40
0.0111111
 41
0.0111111
  0
VERTEX
  8
0
 10
2.0191
 20
5.91032
 30
0.0
 40
0.0111111
 41
0.0111111
  0
VERTEX
  8
0
 10
2.01243
 20
5.9094
 30
0.0
 40
0.0111111
 41
0.0111111
  0
VERTEX
  8
0
 10
2.00575
 20
5.90815
 30
0.0
 40
0.0111111
 41
0.0111111
  0
VERTEX
  8
0
 10
1.99908
 20
5.90647
 30
0.0
 40
0.0111111
 41
0.0111111
  0
VERTEX
  8
0
 10
1.99246
 20
5.9044
 30
0.0
 40
0.0111111
 41
0.0111111
  0
VERTEX
  8
0
 10
1.98594
 20
5.90201
 30
0.0
 40
0.0111111
 41
0.0111111
  0
VERTEX
  8
0
 10
1.9796
 20
5.89925
 30
0.0
 40
0.0111111
 41
0.0111111
  0
VERTEX
  8
0
 10
1.97342
 20
5.89615
 30
0.0
 40
0.0111111
 41
0.0111111
  0
VERTEX
  8
0
 10
1.96739
 20
5.89268
 30
0.0
 40
0.0111111
 41
0.0111111
  0
VERTEX
  8
0
 10
1.96158
 20
5.88889
 30
0.0
 40
0.0111111
 41
0.0111111
  0
VERTEX
  8
0
 10
1.956
 20
5.88482
 30
0.0
 40
0.0111111
 41
0.0111111
  0
VERTEX
  8
0
 10
1.95079
 20
5.88053
 30
0.0
 40
0.0111111
 41
0.0111111
  0
VERTEX
  8
0
 10
1.94581
 20
5.87597
 30
0.0
 40
0.0111111
 41
0.0111111
  0
VERTEX
  8
0
 10
1.94103
 20
5.87115
 30
0.0
 40
0.0111111
 41
0.0111111
  0
VERTEX
  8
0
 10
1.93658
 20
5.8661
 30
0.0
 40
0.0111111
 41
0.0111111
  0
VERTEX
  8
0
 10
0.0345053
 20
3.58361
 30
0.0
 40
0.0111111
 41
0.0111111
  0
VERTEX
  8
0
 10
0.0311415
 20
3.57937
 30
0.0
 40
0.0111111
 41
0.0111111
  0
VERTEX
  8
0
 10
0.0279949
 20
3.57497
 30
0.0
 40
0.0111111
 41
0.0111111
  0
VERTEX
  8
0
 10
0.0249567
 20
3.57047
 30
0.0
 40
0.0111111
 41
0.0111111
  0
VERTEX
  8
0
 10
0.0221897
 20
3.56581
 30
0.0
 40
0.0111111
 41
0.0111111
  0
VERTEX
  8
0
 10
0.0195856
 20
3.56104
 30
0.0
 40
0.0111111
 41
0.0111111
  0
VERTEX
  8
0
 10
0.0171442
 20
3.55615
 30
0.0
 40
0.0111111
 41
0.0111111
  0
VERTEX
  8
0
 10
0.014974
 20
3.55122
 30
0.0
 40
0.0111111
 41
0.0111111
  0
VERTEX
  8
0
 10
0.0130208
 20
3.54617
 30
0.0
 40
0.0111111
 41
0.0111111
  0
VERTEX
  8
0
 10
0.0112847
 20
3.54101
 30
0.0
 40
0.0111111
 41
0.0111111
  0
VERTEX
  8
0
 10
0.00976563
 20
3.53581
 30
0.0
 40
0.0111111
 41
0.0111111
  0
VERTEX
  8
0
 10
0.00851779
 20
3.53054
 30
0.0
 40
0.0111111
 41
0.0111111
  0
VERTEX
  8
0
 10
0.00748699
 20
3.52518
 30
0.0
 40
0.0111111
 41
0.0111111
  0
VERTEX
  8
0
 10
0.00661893
 20
3.51981
 30
0.0
 40
0.0111111
 41
0.0111111
  0
VERTEX
  8
0
 10
0.00602214
 20
3.51443
 30
0.0
 40
0.0111111
 41
0.0111111
  0
VERTEX
  8
0
 10
0.00569661
 20
3.509
 30
0.0
 40
0.0111111
 41
0.0111111
  0
VERTEX
  8
0
 10
0.00553386
 20
3.50358
 30
0.0
 40
0.0111111
 41
0.0111111
  0
VERTEX
  8
0
 10
0.00553386
 20
0.130534
 30
0.0
 40
0.0111111
 41
0.0111111
  0
VERTEX
  8
0
 10
0.00569661
 20
0.124837
 30
0.0
 40
0.0111111
 41
0.0111111
  0
VERTEX
  8
0
 10
0.00607639
 20
0.119141
 30
0.0
 40
0.0111111
 41
0.0111111
  0
VERTEX
  8
0
 10
0.00672743
 20
0.113444
 30
0.0
 40
0.0111111
 41
0.0111111
  0
VERTEX
  8
0
 10
0.00764974
 20
0.107802
 30
0.0
 40
0.0111111
 41
0.0111111
  0
VERTEX
  8
0
 10
0.00889757
 20
0.101888
 30
0.0
 40
0.0111111
 41
0.0111111
  0
VERTEX
  8
0
 10
0.0104167
 20
0.0960286
 30
0.0
 40
0.0111111
 41
0.0111111
  0
VERTEX
  8
0
 10
0.012207
 20
0.0902235
 30
0.0
 40
0.0111111
 41
0.0111111
  0
VERTEX
  8
0
 10
0.0143229
 20
0.0845269
 30
0.0
 40
0.0111111
 41
0.0111111
  0
VERTEX
  8
0
 10
0.0168186
 20
0.0787218
 30
0.0
 40
0.0111111
 41
0.0111111
  0
VERTEX
  8
0
 10
0.0195856
 20
0.0730251
 30
0.0
 40
0.0111111
 41
0.0111111
  0
VERTEX
  8
0
 10
0.0226237
 20
0.0674914
 30
0.0
 40
0.0111111
 41
0.0111111
  0
VERTEX
  8
0
 10
0.0259332
 20
0.0621203
 30
0.0
 40
0.0111111
 41
0.0111111
  0
VERTEX
  8
0
 10
0.0296224
 20
0.0568576
 30
0.0
 40
0.0111111
 41
0.0111111
  0
VERTEX
  8
0
 10
0.0335286
 20
0.0517578
 30
0.0
 40
0.0111111
 41
0.0111111
  0
VERTEX
  8
0
 10
0.0377061
 20
0.0468207
 30
0.0
 40
0.0111111
 41
0.0111111
  0
VERTEX
  8
0
 10
0.042155
 20
0.042155
 30
0.0
 40
0.0111111
 41
0.0111111
  0
VERTEX
  8
0
 10
0.0468207
 20
0.0377061
 30
0.0
 40
0.0111111
 41
0.0111111
  0
VERTEX
  8
0
 10
0.0517578
 20
0.0335286
 30
0.0
 40
0.0111111
 41
0.0111111
  0
VERTEX
  8
0
 10
0.0568576
 20
0.0295682
 30
0.0
 40
0.0111111
 41
0.0111111
  0
VERTEX
  8
0
 10
0.0621744
 20
0.0259332
 30
0.0
 40
0.0111111
 41
0.0111111
  0
VERTEX
  8
0
 10
0.0675456
 20
0.0226237
 30
0.0
 40
0.0111111
 41
0.0111111
  0
VERTEX
  8
0
 10
0.0730794
 20
0.0195856
 30
0.0
 40
0.0111111
 41
0.0111111
  0
VERTEX
  8
0
 10
0.0787218
 20
0.0168186
 30
0.0
 40
0.0111111
 41
0.0111111
  0
VERTEX
  8
0
 10
0.0845269
 20
0.0143229
 30
0.0
 40
0.0111111
 41
0.0111111
  0
VERTEX
  8
0
 10
0.0902235
 20
0.012207
 30
0.0
 40
0.0111111
 41
0.0111111
  0
VERTEX
  8
0
 10
0.0960286
 20
0.0104167
 30
0.0
 40
0.0111111
 41
0.0111111
  0
VERTEX
  8
0
 10
0.101888
 20
0.00889757
 30
0.0
 40
0.0111111
 41
0.0111111
  0
VERTEX
  8
0
 10
0.107802
 20
0.00764974
 30
0.0
 40
0.0111111
 41
0.0111111
  0
VERTEX
  8
0
 10
0.113444
 20
0.00672743
 30
0.0
 40
0.0111111
 41
0.0111111
  0
VERTEX
  8
0
 10
0.119141
 20
0.00607639
 30
0.0
 40
0.0111111
 41
0.0111111
  0
VERTEX
  8
0
 10
0.124837
 20
0.00569661
 30
0.0
 40
0.0111111
 41
0.0111111
  0
VERTEX
  8
0
 10
0.130534
 20
0.00553386
 30
0.0
 40
0.0111111
 41
0.0111111
  0
VERTEX
  8
0
 10
6.17974
 20
0.00553386
 30
0.0
 40
0.0111111
 41
0.0111111
  0
SEQEND
 8
0
  0
POLYLINE
  8
0
 62
     0
 66
     1
 10
0
 20
0
 30
0.0
 70
     1
 40
0.8
 41
0.8
  0
VERTEX
  8
0
 10
2.36778
 20
5.41401
 30
0.0
 40
0.0111111
 41
0.0111111
  0
VERTEX
  8
0
 10
2.3616
 20
5.41379
 30
0.0
 40
0.0111111
 41
0.0111111
  0
VERTEX
  8
0
 10
2.34299
 20
5.41656
 30
0.0
 40
0.0111111
 41
0.0111111
  0
VERTEX
  8
0
 10
2.32026
 20
5.42535
 30
0.0
 40
0.0111111
 41
0.0111111
  0
VERTEX
  8
0
 10
2.3004
 20
5.43935
 30
0.0
 40
0.0111111
 41
0.0111111
  0
VERTEX
  8
0
 10
2.28407
 20
5.45751
 30
0.0
 40
0.0111111
 41
0.0111111
  0
VERTEX
  8
0
 10
2.27214
 20
5.47879
 30
0.0
 40
0.0111111
 41
0.0111111
  0
VERTEX
  8
0
 10
2.26531
 20
5.50211
 30
0.0
 40
0.0111111
 41
0.0111111
  0
VERTEX
  8
0
 10
2.26426
 20
5.52647
 30
0.0
 40
0.0111111
 41
0.0111111
  0
VERTEX
  8
0
 10
2.26768
 20
5.54497
 30
0.0
 40
0.0111111
 41
0.0111111
  0
VERTEX
  8
0
 10
2.26992
 20
5.55067
 30
0.0
 40
0.0111111
 41
0.0111111
  0
VERTEX
  8
0
 10
2.27262
 20
5.55946
 30
0.0
 40
0.0111111
 41
0.0111111
  0
VERTEX
  8
0
 10
2.28808
 20
5.58356
 30
0.0
 40
0.0111111
 41
0.0111111
  0
VERTEX
  8
0
 10
2.31679
 20
5.60682
 30
0.0
 40
0.0111111
 41
0.0111111
  0
VERTEX
  8
0
 10
2.35189
 20
5.61957
 30
0.0
 40
0.0111111
 41
0.0111111
  0
VERTEX
  8
0
 10
2.38021
 20
5.62196
 30
0.0
 40
0.0111111
 41
0.0111111
  0
VERTEX
  8
0
 10
2.38943
 20
5.62071
 30
0.0
 40
0.0111111
 41
0.0111111
  0
VERTEX
  8
0
 10
2.51964
 20
5.62067
 30
0.0
 40
0.0111111
 41
0.0111111
  0
VERTEX
  8
0
 10
3.82178
 20
5.62056
 30
0.0
 40
0.0111111
 41
0.0111111
  0
VERTEX
  8
0
 10
3.95199
 20
5.62028
 30
0.0
 40
0.0111111
 41
0.0111111
  0
VERTEX
  8
0
 10
3.95806
 20
5.61996
 30
0.0
 40
0.0111111
 41
0.0111111
  0
VERTEX
  8
0
 10
3.97629
 20
5.61556
 30
0.0
 40
0.0111111
 41
0.0111111
  0
VERTEX
  8
0
 10
3.99804
 20
5.60482
 30
0.0
 40
0.0111111
 41
0.0111111
  0
VERTEX
  8
0
 10
4.0165
 20
5.58914
 30
0.0
 40
0.0111111
 41
0.0111111
  0
VERTEX
  8
0
 10
4.03108
 20
5.56972
 30
0.0
 40
0.0111111
 41
0.0111111
  0
VERTEX
  8
0
 10
4.04107
 20
5.54758
 30
0.0
 40
0.0111111
 41
0.0111111
  0
VERTEX
  8
0
 10
4.0459
 20
5.52382
 30
0.0
 40
0.0111111
 41
0.0111111
  0
VERTEX
  8
0
 10
4.04482
 20
5.49962
 30
0.0
 40
0.0111111
 41
0.0111111
  0
VERTEX
  8
0
 10
4.03988
 20
5.48156
 30
0.0
 40
0.0111111
 41
0.0111111
  0
VERTEX
  8
0
 10
4.03722
 20
5.47601
 30
0.0
 40
0.0111111
 41
0.0111111
  0
VERTEX
  8
0
 10
4.0339
 20
5.46778
 30
0.0
 40
0.0111111
 41
0.0111111
  0
VERTEX
  8
0
 10
4.01725
 20
5.44569
 30
0.0
 40
0.0111111
 41
0.0111111
  0
VERTEX
  8
0
 10
3.98812
 20
5.42507
 30
0.0
 40
0.0111111
 41
0.0111111
  0
VERTEX
  8
0
 10
3.9535
 20
5.4145
 30
0.0
 40
0.0111111
 41
0.0111111
  0
VERTEX
  8
0
 10
3.92611
 20
5.41287
 30
0.0
 40
0.0111111
 41
0.0111111
  0
VERTEX
  8
0
 10
3.91726
 20
5.41401
 30
0.0
 40
0.0111111
 41
0.0111111
  0
VERTEX
  8
0
 10
2.36778
 20
5.41401
 30
0.0
 40
0.0111111
 41
0.0111111
  0
SEQEND
 8
0
  0
POLYLINE
  8
0
 62
     0
 66
     1
 10
0
 20
0
 30
0.0
 70
     1
 40
0.8
 41
0.8
  0
VERTEX
  8
0
 10
4.33154
 20
5.0204
 30
0.0
 40
0.0111111
 41
0.0111111
  0
VERTEX
  8
0
 10
4.32465
 20
5.02067
 30
0.0
 40
0.0111111
 41
0.0111111
  0
VERTEX
  8
0
 10
4.30419
 20
5.02539
 30
0.0
 40
0.0111111
 41
0.0111111
  0
VERTEX
  8
0
 10
4.27929
 20
5.03754
 30
0.0
 40
0.0111111
 41
0.0111111
  0
VERTEX
  8
0
 10
4.25836
 20
5.05572
 30
0.0
 40
0.0111111
 41
0.0111111
  0
VERTEX
  8
0
 10
4.24604
 20
5.07269
 30
0.0
 40
0.0111111
 41
0.0111111
  0
VERTEX
  8
0
 10
4.24317
 20
5.07889
 30
0.0
 40
0.0111111
 41
0.0111111
  0
VERTEX
  8
0
 10
4.23904
 20
5.08718
 30
0.0
 40
0.0111111
 41
0.0111111
  0
VERTEX
  8
0
 10
4.23335
 20
5.13254
 30
0.0
 40
0.0111111
 41
0.0111111
  0
VERTEX
  8
0
 10
4.24675
 20
5.17632
 30
0.0
 40
0.0111111
 41
0.0111111
  0
VERTEX
  8
0
 10
4.25222
 20
5.18375
 30
0.0
 40
0.0111111
 41
0.0111111
  0
VERTEX
  8
0
 10
4.25613
 20
5.1894
 30
0.0
 40
0.0111111
 41
0.0111111
  0
VERTEX
  8
0
 10
4.27121
 20
5.204
 30
0.0
 40
0.0111111
 41
0.0111111
  0
VERTEX
  8
0
 10
4.29492
 20
5.21832
 30
0.0
 40
0.0111111
 41
0.0111111
  0
VERTEX
  8
0
 10
4.32161
 20
5.22601
 30
0.0
 40
0.0111111
 41
0.0111111
  0
VERTEX
  8
0
 10
4.34256
 20
5.22711
 30
0.0
 40
0.0111111
 41
0.0111111
  0
VERTEX
  8
0
 10
4.34939
 20
5.22618
 30
0.0
 40
0.0111111
 41
0.0111111
  0
VERTEX
  8
0
 10
4.35607
 20
5.22542
 30
0.0
 40
0.0111111
 41
0.0111111
  0
VERTEX
  8
0
 10
4.37571
 20
5.21918
 30
0.0
 40
0.0111111
 41
0.0111111
  0
VERTEX
  8
0
 10
4.39925
 20
5.20551
 30
0.0
 40
0.0111111
 41
0.0111111
  0
VERTEX
  8
0
 10
4.41851
 20
5.18625
 30
0.0
 40
0.0111111
 41
0.0111111
  0
VERTEX
  8
0
 10
4.42953
 20
5.16883
 30
0.0
 40
0.0111111
 41
0.0111111
  0
VERTEX
  8
0
 10
4.43201
 20
5.16254
 30
0.0
 40
0.0111111
 41
0.0111111
  0
VERTEX
  8
0
 10
4.43554
 20
5.15414
 30
0.0
 40
0.0111111
 41
0.0111111
  0
VERTEX
  8
0
 10
4.43847
 20
5.10894
 30
0.0
 40
0.0111111
 41
0.0111111
  0
VERTEX
  8
0
 10
4.42285
 20
5.0664
 30
0.0
 40
0.0111111
 41
0.0111111
  0
VERTEX
  8
0
 10
4.4171
 20
5.05931
 30
0.0
 40
0.0111111
 41
0.0111111
  0
VERTEX
  8
0
 10
4.41206
 20
5.0529
 30
0.0
 40
0.0111111
 41
0.0111111
  0
VERTEX
  8
0
 10
4.37896
 20
5.02962
 30
0.0
 40
0.0111111
 41
0.0111111
  0
VERTEX
  8
0
 10
4.33968
 20
5.02001
 30
0.0
 40
0.0111111
 41
0.0111111
  0
VERTEX
  8
0
 10
4.33154
 20
5.0204
 30
0.0
 40
0.0111111
 41
0.0111111
  0
SEQEND
 8
0
  0
POLYLINE
  8
0
 62
     0
 66
     1
 10
0
 20
0
 30
0.0
 70
     1
 40
0.8
 41
0.8
  0
VERTEX
  8
0
 10
1.96935
 20
5.0204
 30
0.0
 40
0.0111111
 41
0.0111111
  0
VERTEX
  8
0
 10
1.96246
 20
5.02067
 30
0.0
 40
0.0111111
 41
0.0111111
  0
VERTEX
  8
0
 10
1.942
 20
5.02539
 30
0.0
 40
0.0111111
 41
0.0111111
  0
VERTEX
  8
0
 10
1.9171
 20
5.03754
 30
0.0
 40
0.0111111
 41
0.0111111
  0
VERTEX
  8
0
 10
1.89615
 20
5.05572
 30
0.0
 40
0.0111111
 41
0.0111111
  0
VERTEX
  8
0
 10
1.88385
 20
5.07269
 30
0.0
 40
0.0111111
 41
0.0111111
  0
VERTEX
  8
0
 10
1.88097
 20
5.07889
 30
0.0
 40
0.0111111
 41
0.0111111
  0
VERTEX
  8
0
 10
1.87685
 20
5.08718
 30
0.0
 40
0.0111111
 41
0.0111111
  0
VERTEX
  8
0
 10
1.87115
 20
5.13254
 30
0.0
 40
0.0111111
 41
0.0111111
  0
VERTEX
  8
0
 10
1.88456
 20
5.17632
 30
0.0
 40
0.0111111
 41
0.0111111
  0
VERTEX
  8
0
 10
1.89003
 20
5.18375
 30
0.0
 40
0.0111111
 41
0.0111111
  0
VERTEX
  8
0
 10
1.89393
 20
5.1894
 30
0.0
 40
0.0111111
 41
0.0111111
  0
VERTEX
  8
0
 10
1.90901
 20
5.204
 30
0.0
 40
0.0111111
 41
0.0111111
  0
VERTEX
  8
0
 10
1.93272
 20
5.21832
 30
0.0
 40
0.0111111
 41
0.0111111
  0
VERTEX
  8
0
 10
1.95942
 20
5.22601
 30
0.0
 40
0.0111111
 41
0.0111111
  0
VERTEX
  8
0
 10
1.98036
 20
5.22711
 30
0.0
 40
0.0111111
 41
0.0111111
  0
VERTEX
  8
0
 10
1.98719
 20
5.22618
 30
0.0
 40
0.0111111
 41
0.0111111
  0
VERTEX
  8
0
 10
1.99388
 20
5.22542
 30
0.0
 40
0.0111111
 41
0.0111111
  0
VERTEX
  8
0
 10
2.01351
 20
5.21918
 30
0.0
 40
0.0111111
 41
0.0111111
  0
VERTEX
  8
0
 10
2.037
 20
5.20551
 30
0.0
 40
0.0111111
 41
0.0111111
  0
VERTEX
  8
0
 10
2.05626
 20
5.18625
 30
0.0
 40
0.0111111
 41
0.0111111
  0
VERTEX
  8
0
 10
2.06728
 20
5.16883
 30
0.0
 40
0.0111111
 41
0.0111111
  0
VERTEX
  8
0
 10
2.06976
 20
5.16254
 30
0.0
 40
0.0111111
 41
0.0111111
  0
VERTEX
  8
0
 10
2.07329
 20
5.15414
 30
0.0
 40
0.0111111
 41
0.0111111
  0
VERTEX
  8
0
 10
2.07622
 20
5.10894
 30
0.0
 40
0.0111111
 41
0.0111111
  0
VERTEX
  8
0
 10
2.06065
 20
5.0664
 30
0.0
 40
0.0111111
 41
0.0111111
  0
VERTEX
  8
0
 10
2.0549
 20
5.05931
 30
0.0
 40
0.0111111
 41
0.0111111
  0
VERTEX
  8
0
 10
2.04981
 20
5.0529
 30
0.0
 40
0.0111111
 41
0.0111111
  0
VERTEX
  8
0
 10
2.01676
 20
5.02962
 30
0.0
 40
0.0111111
 41
0.0111111
  0
VERTEX
  8
0
 10
1.97749
 20
5.02001
 30
0.0
 40
0.0111111
 41
0.0111111
  0
VERTEX
  8
0
 10
1.96935
 20
5.0204
 30
0.0
 40
0.0111111
 41
0.0111111
  0
SEQEND
 8
0
  0
POLYLINE
  8
0
 62
     0
 66
     1
 10
0
 20
0
 30
0.0
 70
     1
 40
0.8
 41
0.8
  0
VERTEX
  8
0
 10
2.36301
 20
4.62674
 30
0.0
 40
0.0111111
 41
0.0111111
  0
VERTEX
  8
0
 10
2.35682
 20
4.62679
 30
0.0
 40
0.0111111
 41
0.0111111
  0
VERTEX
  8
0
 10
2.33832
 20
4.63043
 30
0.0
 40
0.0111111
 41
0.0111111
  0
VERTEX
  8
0
 10
2.31603
 20
4.64025
 30
0.0
 40
0.0111111
 41
0.0111111
  0
VERTEX
  8
0
 10
2.29682
 20
4.65522
 30
0.0
 40
0.0111111
 41
0.0111111
  0
VERTEX
  8
0
 10
2.28136
 20
4.67415
 30
0.0
 40
0.0111111
 41
0.0111111
  0
VERTEX
  8
0
 10
2.27046
 20
4.69601
 30
0.0
 40
0.0111111
 41
0.0111111
  0
VERTEX
  8
0
 10
2.26471
 20
4.71967
 30
0.0
 40
0.0111111
 41
0.0111111
  0
VERTEX
  8
0
 10
2.26486
 20
4.74403
 30
0.0
 40
0.0111111
 41
0.0111111
  0
VERTEX
  8
0
 10
2.26915
 20
4.76237
 30
0.0
 40
0.0111111
 41
0.0111111
  0
VERTEX
  8
0
 10
2.27165
 20
4.76801
 30
0.0
 40
0.0111111
 41
0.0111111
  0
VERTEX
  8
0
 10
2.27474
 20
4.77658
 30
0.0
 40
0.0111111
 41
0.0111111
  0
VERTEX
  8
0
 10
2.29118
 20
4.79969
 30
0.0
 40
0.0111111
 41
0.0111111
  0
VERTEX
  8
0
 10
2.32058
 20
4.8214
 30
0.0
 40
0.0111111
 41
0.0111111
  0
VERTEX
  8
0
 10
2.35585
 20
4.83279
 30
0.0
 40
0.0111111
 41
0.0111111
  0
VERTEX
  8
0
 10
2.38396
 20
4.83453
 30
0.0
 40
0.0111111
 41
0.0111111
  0
VERTEX
  8
0
 10
2.39307
 20
4.83328
 30
0.0
 40
0.0111111
 41
0.0111111
  0
VERTEX
  8
0
 10
2.52294
 20
4.83322
 30
0.0
 40
0.0111111
 41
0.0111111
  0
VERTEX
  8
0
 10
3.82206
 20
4.83317
 30
0.0
 40
0.0111111
 41
0.0111111
  0
VERTEX
  8
0
 10
3.95199
 20
4.8329
 30
0.0
 40
0.0111111
 41
0.0111111
  0
VERTEX
  8
0
 10
3.95806
 20
4.83257
 30
0.0
 40
0.0111111
 41
0.0111111
  0
VERTEX
  8
0
 10
3.97629
 20
4.82818
 30
0.0
 40
0.0111111
 41
0.0111111
  0
VERTEX
  8
0
 10
3.99804
 20
4.81743
 30
0.0
 40
0.0111111
 41
0.0111111
  0
VERTEX
  8
0
 10
4.0165
 20
4.80176
 30
0.0
 40
0.0111111
 41
0.0111111
  0
VERTEX
  8
0
 10
4.03108
 20
4.78228
 30
0.0
 40
0.0111111
 41
0.0111111
  0
VERTEX
  8
0
 10
4.04107
 20
4.76014
 30
0.0
 40
0.0111111
 41
0.0111111
  0
VERTEX
  8
0
 10
4.0459
 20
4.73643
 30
0.0
 40
0.0111111
 41
0.0111111
  0
VERTEX
  8
0
 10
4.04482
 20
4.71218
 30
0.0
 40
0.0111111
 41
0.0111111
  0
VERTEX
  8
0
 10
4.03988
 20
4.69412
 30
0.0
 40
0.0111111
 41
0.0111111
  0
VERTEX
  8
0
 10
4.03722
 20
4.68858
 30
0.0
 40
0.0111111
 41
0.0111111
  0
VERTEX
  8
0
 10
4.0339
 20
4.68033
 30
0.0
 40
0.0111111
 41
0.0111111
  0
VERTEX
  8
0
 10
4.01725
 20
4.65826
 30
0.0
 40
0.0111111
 41
0.0111111
  0
VERTEX
  8
0
 10
3.98812
 20
4.63769
 30
0.0
 40
0.0111111
 41
0.0111111
  0
VERTEX
  8
0
 10
3.9535
 20
4.62706
 30
0.0
 40
0.0111111
 41
0.0111111
  0
VERTEX
  8
0
 10
3.92611
 20
4.62549
 30
0.0
 40
0.0111111
 41
0.0111111
  0
VERTEX
  8
0
 10
3.91726
 20
4.62663
 30
0.0
 40
0.0111111
 41
0.0111111
  0
VERTEX
  8
0
 10
3.78771
 20
4.62668
 30
0.0
 40
0.0111111
 41
0.0111111
  0
VERTEX
  8
0
 10
2.49251
 20
4.62668
 30
0.0
 40
0.0111111
 41
0.0111111
  0
VERTEX
  8
0
 10
2.36301
 20
4.62674
 30
0.0
 40
0.0111111
 41
0.0111111
  0
SEQEND
 8
0
  0
POLYLINE
  8
0
 62
     0
 66
     1
 10
0
 20
0
 30
0.0
 70
     1
 40
0.8
 41
0.8
  0
VERTEX
  8
0
 10
4.07796
 20
4.07042
 30
0.0
 40
0.0111111
 41
0.0111111
  0
VERTEX
  8
0
 10
4.07015
 20
4.07075
 30
0.0
 40
0.0111111
 41
0.0111111
  0
VERTEX
  8
0
 10
4.04693
 20
4.07682
 30
0.0
 40
0.0111111
 41
0.0111111
  0
VERTEX
  8
0
 10
4.01942
 20
4.09239
 30
0.0
 40
0.0111111
 41
0.0111111
  0
VERTEX
  8
0
 10
3.99772
 20
4.1154
 30
0.0
 40
0.0111111
 41
0.0111111
  0
VERTEX
  8
0
 10
3.98628
 20
4.1365
 30
0.0
 40
0.0111111
 41
0.0111111
  0
VERTEX
  8
0
 10
3.98415
 20
4.14399
 30
0.0
 40
0.0111111
 41
0.0111111
  0
VERTEX
  8
0
 10
3.98232
 20
4.1499
 30
0.0
 40
0.0111111
 41
0.0111111
  0
VERTEX
  8
0
 10
3.9796
 20
4.18028
 30
0.0
 40
0.0111111
 41
0.0111111
  0
VERTEX
  8
0
 10
3.97999
 20
4.21094
 30
0.0
 40
0.0111111
 41
0.0111111
  0
VERTEX
  8
0
 10
3.97976
 20
4.21701
 30
0.0
 40
0.0111111
 41
0.0111111
  0
VERTEX
  8
0
 10
3.97971
 20
4.22874
 30
0.0
 40
0.0111111
 41
0.0111111
  0
VERTEX
  8
0
 10
3.9796
 20
4.3456
 30
0.0
 40
0.0111111
 41
0.0111111
  0
VERTEX
  8
0
 10
3.97944
 20
4.35726
 30
0.0
 40
0.0111111
 41
0.0111111
  0
VERTEX
  8
0
 10
3.97803
 20
4.36572
 30
0.0
 40
0.0111111
 41
0.0111111
  0
VERTEX
  8
0
 10
3.98025
 20
4.39204
 30
0.0
 40
0.0111111
 41
0.0111111
  0
VERTEX
  8
0
 10
3.99306
 20
4.42437
 30
0.0
 40
0.0111111
 41
0.0111111
  0
VERTEX
  8
0
 10
4.01557
 20
4.45096
 30
0.0
 40
0.0111111
 41
0.0111111
  0
VERTEX
  8
0
 10
4.03754
 20
4.46565
 30
0.0
 40
0.0111111
 41
0.0111111
  0
VERTEX
  8
0
 10
4.04563
 20
4.46853
 30
0.0
 40
0.0111111
 41
0.0111111
  0
VERTEX
  8
0
 10
4.053
 20
4.47151
 30
0.0
 40
0.0111111
 41
0.0111111
  0
VERTEX
  8
0
 10
4.07731
 20
4.47537
 30
0.0
 40
0.0111111
 41
0.0111111
  0
VERTEX
  8
0
 10
4.10949
 20
4.47206
 30
0.0
 40
0.0111111
 41
0.0111111
  0
VERTEX
  8
0
 10
4.13926
 20
4.45925
 30
0.0
 40
0.0111111
 41
0.0111111
  0
VERTEX
  8
0
 10
4.15858
 20
4.44407
 30
0.0
 40
0.0111111
 41
0.0111111
  0
VERTEX
  8
0
 10
4.16363
 20
4.43782
 30
0.0
 40
0.0111111
 41
0.0111111
  0
VERTEX
  8
0
 10
4.16824
 20
4.43246
 30
0.0
 40
0.0111111
 41
0.0111111
  0
VERTEX
  8
0
 10
4.18349
 20
4.40099
 30
0.0
 40
0.0111111
 41
0.0111111
  0
VERTEX
  8
0
 10
4.18847
 20
4.36626
 30
0.0
 40
0.0111111
 41
0.0111111
  0
VERTEX
  8
0
 10
4.18804
 20
4.35926
 30
0.0
 40
0.0111111
 41
0.0111111
  0
VERTEX
  8
0
 10
4.18782
 20
4.34321
 30
0.0
 40
0.0111111
 41
0.0111111
  0
VERTEX
  8
0
 10
4.18642
 20
4.18229
 30
0.0
 40
0.0111111
 41
0.0111111
  0
VERTEX
  8
0
 10
4.18614
 20
4.16618
 30
0.0
 40
0.0111111
 41
0.0111111
  0
VERTEX
  8
0
 10
4.18571
 20
4.15826
 30
0.0
 40
0.0111111
 41
0.0111111
  0
VERTEX
  8
0
 10
4.17882
 20
4.1346
 30
0.0
 40
0.0111111
 41
0.0111111
  0
VERTEX
  8
0
 10
4.16189
 20
4.10699
 30
0.0
 40
0.0111111
 41
0.0111111
  0
VERTEX
  8
0
 10
4.13747
 20
4.08578
 30
0.0
 40
0.0111111
 41
0.0111111
  0
VERTEX
  8
0
 10
4.11529
 20
4.07508
 30
0.0
 40
0.0111111
 41
0.0111111
  0
VERTEX
  8
0
 10
4.10753
 20
4.07329
 30
0.0
 40
0.0111111
 41
0.0111111
  0
VERTEX
  8
0
 10
4.10508
 20
4.07269
 30
0.0
 40
0.0111111
 41
0.0111111
  0
VERTEX
  8
0
 10
4.0804
 20
4.07032
 30
0.0
 40
0.0111111
 41
0.0111111
  0
VERTEX
  8
0
 10
4.07796
 20
4.07042
 30
0.0
 40
0.0111111
 41
0.0111111
  0
SEQEND
 8
0
  0
POLYLINE
  8
0
 62
     0
 66
     1
 10
0
 20
0
 30
0.0
 70
     1
 40
0.8
 41
0.8
  0
VERTEX
  8
0
 10
2.22206
 20
4.07042
 30
0.0
 40
0.0111111
 41
0.0111111
  0
VERTEX
  8
0
 10
2.21425
 20
4.07075
 30
0.0
 40
0.0111111
 41
0.0111111
  0
VERTEX
  8
0
 10
2.19103
 20
4.07688
 30
0.0
 40
0.0111111
 41
0.0111111
  0
VERTEX
  8
0
 10
2.16351
 20
4.09244
 30
0.0
 40
0.0111111
 41
0.0111111
  0
VERTEX
  8
0
 10
2.14182
 20
4.1154
 30
0.0
 40
0.0111111
 41
0.0111111
  0
VERTEX
  8
0
 10
2.13037
 20
4.1365
 30
0.0
 40
0.0111111
 41
0.0111111
  0
VERTEX
  8
0
 10
2.12825
 20
4.14399
 30
0.0
 40
0.0111111
 41
0.0111111
  0
VERTEX
  8
0
 10
2.12642
 20
4.1499
 30
0.0
 40
0.0111111
 41
0.0111111
  0
VERTEX
  8
0
 10
2.12369
 20
4.18028
 30
0.0
 40
0.0111111
 41
0.0111111
  0
VERTEX
  8
0
 10
2.12408
 20
4.21094
 30
0.0
 40
0.0111111
 41
0.0111111
  0
VERTEX
  8
0
 10
2.12386
 20
4.21701
 30
0.0
 40
0.0111111
 41
0.0111111
  0
VERTEX
  8
0
 10
2.12381
 20
4.22874
 30
0.0
 40
0.0111111
 41
0.0111111
  0
VERTEX
  8
0
 10
2.12369
 20
4.3456
 30
0.0
 40
0.0111111
 41
0.0111111
  0
VERTEX
  8
0
 10
2.12354
 20
4.35726
 30
0.0
 40
0.0111111
 41
0.0111111
  0
VERTEX
  8
0
 10
2.12213
 20
4.36572
 30
0.0
 40
0.0111111
 41
0.0111111
  0
VERTEX
  8
0
 10
2.12435
 20
4.39204
 30
0.0
 40
0.0111111
 41
0.0111111
  0
VERTEX
  8
0
 10
2.13715
 20
4.42437
 30
0.0
 40
0.0111111
 41
0.0111111
  0
VERTEX
  8
0
 10
2.15967
 20
4.45096
 30
0.0
 40
0.0111111
 41
0.0111111
  0
VERTEX
  8
0
 10
2.18164
 20
4.46565
 30
0.0
 40
0.0111111
 41
0.0111111
  0
VERTEX
  8
0
 10
2.18972
 20
4.46853
 30
0.0
 40
0.0111111
 41
0.0111111
  0
VERTEX
  8
0
 10
2.1971
 20
4.47151
 30
0.0
 40
0.0111111
 41
0.0111111
  0
VERTEX
  8
0
 10
2.2214
 20
4.47537
 30
0.0
 40
0.0111111
 41
0.0111111
  0
VERTEX
  8
0
 10
2.25358
 20
4.47206
 30
0.0
 40
0.0111111
 41
0.0111111
  0
VERTEX
  8
0
 10
2.28336
 20
4.45925
 30
0.0
 40
0.0111111
 41
0.0111111
  0
VERTEX
  8
0
 10
2.30268
 20
4.44407
 30
0.0
 40
0.0111111
 41
0.0111111
  0
VERTEX
  8
0
 10
2.30772
 20
4.43782
 30
0.0
 40
0.0111111
 41
0.0111111
  0
VERTEX
  8
0
 10
2.31233
 20
4.43246
 30
0.0
 40
0.0111111
 41
0.0111111
  0
VERTEX
  8
0
 10
2.32758
 20
4.40099
 30
0.0
 40
0.0111111
 41
0.0111111
  0
VERTEX
  8
0
 10
2.33257
 20
4.36626
 30
0.0
 40
0.0111111
 41
0.0111111
  0
VERTEX
  8
0
 10
2.33214
 20
4.35926
 30
0.0
 40
0.0111111
 41
0.0111111
  0
VERTEX
  8
0
 10
2.33192
 20
4.34321
 30
0.0
 40
0.0111111
 41
0.0111111
  0
VERTEX
  8
0
 10
2.33051
 20
4.18229
 30
0.0
 40
0.0111111
 41
0.0111111
  0
VERTEX
  8
0
 10
2.33024
 20
4.16618
 30
0.0
 40
0.0111111
 41
0.0111111
  0
VERTEX
  8
0
 10
2.32975
 20
4.15826
 30
0.0
 40
0.0111111
 41
0.0111111
  0
VERTEX
  8
0
 10
2.32286
 20
4.1346
 30
0.0
 40
0.0111111
 41
0.0111111
  0
VERTEX
  8
0
 10
2.30599
 20
4.10699
 30
0.0
 40
0.0111111
 41
0.0111111
  0
VERTEX
  8
0
 10
2.28153
 20
4.08578
 30
0.0
 40
0.0111111
 41
0.0111111
  0
VERTEX
  8
0
 10
2.25939
 20
4.07508
 30
0.0
 40
0.0111111
 41
0.0111111
  0
VERTEX
  8
0
 10
2.25163
 20
4.07329
 30
0.0
 40
0.0111111
 41
0.0111111
  0
VERTEX
  8
0
 10
2.24918
 20
4.07269
 30
0.0
 40
0.0111111
 41
0.0111111
  0
VERTEX
  8
0
 10
2.2245
 20
4.07032
 30
0.0
 40
0.0111111
 41
0.0111111
  0
VERTEX
  8
0
 10
2.22206
 20
4.07042
 30
0.0
 40
0.0111111
 41
0.0111111
  0
SEQEND
 8
0
  0
POLYLINE
  8
0
 62
     0
 66
     1
 10
0
 20
0
 30
0.0
 70
     1
 40
0.8
 41
0.8
  0
VERTEX
  8
0
 10
2.54226
 20
3.59494
 30
0.0
 40
0.0111111
 41
0.0111111
  0
VERTEX
  8
0
 10
2.53629
 20
3.59511
 30
0.0
 40
0.0111111
 41
0.0111111
  0
VERTEX
  8
0
 10
2.51861
 20
3.60064
 30
0.0
 40
0.0111111
 41
0.0111111
  0
VERTEX
  8
0
 10
2.49897
 20
3.61481
 30
0.0
 40
0.0111111
 41
0.0111111
  0
VERTEX
  8
0
 10
2.48574
 20
3.63504
 30
0.0
 40
0.0111111
 41
0.0111111
  0
VERTEX
  8
0
 10
2.48101
 20
3.65294
 30
0.0
 40
0.0111111
 41
0.0111111
  0
VERTEX
  8
0
 10
2.48118
 20
3.65886
 30
0.0
 40
0.0111111
 41
0.0111111
  0
VERTEX
  8
0
 10
2.48118
 20
3.69211
 30
0.0
 40
0.0111111
 41
0.0111111
  0
VERTEX
  8
0
 10
2.48122
 20
4.02447
 30
0.0
 40
0.0111111
 41
0.0111111
  0
VERTEX
  8
0
 10
2.48139
 20
4.05767
 30
0.0
 40
0.0111111
 41
0.0111111
  0
VERTEX
  8
0
 10
2.48172
 20
4.06364
 30
0.0
 40
0.0111111
 41
0.0111111
  0
VERTEX
  8
0
 10
2.4879
 20
4.08128
 30
0.0
 40
0.0111111
 41
0.0111111
  0
VERTEX
  8
0
 10
2.50293
 20
4.10047
 30
0.0
 40
0.0111111
 41
0.0111111
  0
VERTEX
  8
0
 10
2.52387
 20
4.11296
 30
0.0
 40
0.0111111
 41
0.0111111
  0
VERTEX
  8
0
 10
2.5421
 20
4.11692
 30
0.0
 40
0.0111111
 41
0.0111111
  0
VERTEX
  8
0
 10
2.54807
 20
4.11649
 30
0.0
 40
0.0111111
 41
0.0111111
  0
VERTEX
  8
0
 10
2.55399
 20
4.11638
 30
0.0
 40
0.0111111
 41
0.0111111
  0
VERTEX
  8
0
 10
2.57167
 20
4.11083
 30
0.0
 40
0.0111111
 41
0.0111111
  0
VERTEX
  8
0
 10
2.59131
 20
4.09668
 30
0.0
 40
0.0111111
 41
0.0111111
  0
VERTEX
  8
0
 10
2.60454
 20
4.07644
 30
0.0
 40
0.0111111
 41
0.0111111
  0
VERTEX
  8
0
 10
2.60926
 20
4.05854
 30
0.0
 40
0.0111111
 41
0.0111111
  0
VERTEX
  8
0
 10
2.60915
 20
4.05257
 30
0.0
 40
0.0111111
 41
0.0111111
  0
VERTEX
  8
0
 10
2.6091
 20
4.01937
 30
0.0
 40
0.0111111
 41
0.0111111
  0
VERTEX
  8
0
 10
2.60906
 20
3.68701
 30
0.0
 40
0.0111111
 41
0.0111111
  0
VERTEX
  8
0
 10
2.60894
 20
3.65375
 30
0.0
 40
0.0111111
 41
0.0111111
  0
VERTEX
  8
0
 10
2.60856
 20
3.64779
 30
0.0
 40
0.0111111
 41
0.0111111
  0
VERTEX
  8
0
 10
2.60232
 20
3.6301
 30
0.0
 40
0.0111111
 41
0.0111111
  0
VERTEX
  8
0
 10
2.58735
 20
3.61094
 30
0.0
 40
0.0111111
 41
0.0111111
  0
VERTEX
  8
0
 10
2.56651
 20
3.59858
 30
0.0
 40
0.0111111
 41
0.0111111
  0
VERTEX
  8
0
 10
2.54818
 20
3.59462
 30
0.0
 40
0.0111111
 41
0.0111111
  0
VERTEX
  8
0
 10
2.54221
 20
3.59494
 30
0.0
 40
0.0111111
 41
0.0111111
  0
VERTEX
  8
0
 10
2.54226
 20
3.59494
 30
0.0
 40
0.0111111
 41
0.0111111
  0
SEQEND
 8
0
  0
POLYLINE
  8
0
 62
     0
 66
     1
 10
0
 20
0
 30
0.0
 70
     1
 40
0.8
 41
0.8
  0
VERTEX
  8
0
 10
3.76226
 20
3.59494
 30
0.0
 40
0.0111111
 41
0.0111111
  0
VERTEX
  8
0
 10
3.75629
 20
3.59511
 30
0.0
 40
0.0111111
 41
0.0111111
  0
VERTEX
  8
0
 10
3.73861
 20
3.60064
 30
0.0
 40
0.0111111
 41
0.0111111
  0
VERTEX
  8
0
 10
3.71897
 20
3.61481
 30
0.0
 40
0.0111111
 41
0.0111111
  0
VERTEX
  8
0
 10
3.70574
 20
3.63504
 30
0.0
 40
0.0111111
 41
0.0111111
  0
VERTEX
  8
0
 10
3.70101
 20
3.65294
 30
0.0
 40
0.0111111
 41
0.0111111
  0
VERTEX
  8
0
 10
3.70117
 20
3.65886
 30
0.0
 40
0.0111111
 41
0.0111111
  0
VERTEX
  8
0
 10
3.70117
 20
3.69211
 30
0.0
 40
0.0111111
 41
0.0111111
  0
VERTEX
  8
0
 10
3.70122
 20
4.02447
 30
0.0
 40
0.0111111
 41
0.0111111
  0
VERTEX
  8
0
 10
3.70139
 20
4.05767
 30
0.0
 40
0.0111111
 41
0.0111111
  0
VERTEX
  8
0
 10
3.70171
 20
4.06364
 30
0.0
 40
0.0111111
 41
0.0111111
  0
VERTEX
  8
0
 10
3.7079
 20
4.08128
 30
0.0
 40
0.0111111
 41
0.0111111
  0
VERTEX
  8
0
 10
3.72293
 20
4.10047
 30
0.0
 40
0.0111111
 41
0.0111111
  0
VERTEX
  8
0
 10
3.74387
 20
4.11296
 30
0.0
 40
0.0111111
 41
0.0111111
  0
VERTEX
  8
0
 10
3.7621
 20
4.11692
 30
0.0
 40
0.0111111
 41
0.0111111
  0
VERTEX
  8
0
 10
3.76807
 20
4.11649
 30
0.0
 40
0.0111111
 41
0.0111111
  0
VERTEX
  8
0
 10
3.77399
 20
4.11638
 30
0.0
 40
0.0111111
 41
0.0111111
  0
VERTEX
  8
0
 10
3.79167
 20
4.11083
 30
0.0
 40
0.0111111
 41
0.0111111
  0
VERTEX
  8
0
 10
3.81131
 20
4.09668
 30
0.0
 40
0.0111111
 41
0.0111111
  0
VERTEX
  8
0
 10
3.82454
 20
4.07644
 30
0.0
 40
0.0111111
 41
0.0111111
  0
VERTEX
  8
0
 10
3.82926
 20
4.05854
 30
0.0
 40
0.0111111
 41
0.0111111
  0
VERTEX
  8
0
 10
3.82915
 20
4.05257
 30
0.0
 40
0.0111111
 41
0.0111111
  0
VERTEX
  8
0
 10
3.8291
 20
4.01937
 30
0.0
 40
0.0111111
 41
0.0111111
  0
VERTEX
  8
0
 10
3.82904
 20
3.68701
 30
0.0
 40
0.0111111
 41
0.0111111
  0
VERTEX
  8
0
 10
3.82894
 20
3.65375
 30
0.0
 40
0.0111111
 41
0.0111111
  0
VERTEX
  8
0
 10
3.82856
 20
3.64779
 30
0.0
 40
0.0111111
 41
0.0111111
  0
VERTEX
  8
0
 10
3.82232
 20
3.6301
 30
0.0
 40
0.0111111
 41
0.0111111
  0
VERTEX
  8
0
 10
3.8074
 20
3.611
 30
0.0
 40
0.0111111
 41
0.0111111
  0
VERTEX
  8
0
 10
3.78651
 20
3.59858
 30
0.0
 40
0.0111111
 41
0.0111111
  0
VERTEX
  8
0
 10
3.76824
 20
3.59462
 30
0.0
 40
0.0111111
 41
0.0111111
  0
VERTEX
  8
0
 10
3.76226
 20
3.59494
 30
0.0
 40
0.0111111
 41
0.0111111
  0
SEQEND
 8
0
  0
POLYLINE
  8
0
 62
     0
 66
     1
 10
0
 20
0
 30
0.0
 70
     1
 40
0.8
 41
0.8
  0
VERTEX
  8
0
 10
3.13444
 20
2.59657
 30
0.0
 40
0.0111111
 41
0.0111111
  0
VERTEX
  8
0
 10
3.10286
 20
2.59771
 30
0.0
 40
0.0111111
 41
0.0111111
  0
VERTEX
  8
0
 10
3.00879
 20
2.62039
 30
0.0
 40
0.0111111
 41
0.0111111
  0
VERTEX
  8
0
 10
2.89518
 20
2.67865
 30
0.0
 40
0.0111111
 41
0.0111111
  0
VERTEX
  8
0
 10
2.80176
 20
2.76574
 30
0.0
 40
0.0111111
 41
0.0111111
  0
VERTEX
  8
0
 10
2.74858
 20
2.84657
 30
0.0
 40
0.0111111
 41
0.0111111
  0
VERTEX
  8
0
 10
2.73687
 20
2.87588
 30
0.0
 40
0.0111111
 41
0.0111111
  0
VERTEX
  8
0
 10
2.72825
 20
2.89524
 30
0.0
 40
0.0111111
 41
0.0111111
  0
VERTEX
  8
0
 10
2.70594
 20
2.99696
 30
0.0
 40
0.0111111
 41
0.0111111
  0
VERTEX
  8
0
 10
2.70188
 20
3.10161
 30
0.0
 40
0.0111111
 41
0.0111111
  0
VERTEX
  8
0
 10
2.70242
 20
3.1224
 30
0.0
 40
0.0111111
 41
0.0111111
  0
VERTEX
  8
0
 10
2.70269
 20
3.1524
 30
0.0
 40
0.0111111
 41
0.0111111
  0
VERTEX
  8
0
 10
2.70324
 20
3.45247
 30
0.0
 40
0.0111111
 41
0.0111111
  0
VERTEX
  8
0
 10
2.70432
 20
3.48242
 30
0.0
 40
0.0111111
 41
0.0111111
  0
VERTEX
  8
0
 10
2.70671
 20
3.51417
 30
0.0
 40
0.0111111
 41
0.0111111
  0
VERTEX
  8
0
 10
2.73356
 20
3.60786
 30
0.0
 40
0.0111111
 41
0.0111111
  0
VERTEX
  8
0
 10
2.79742
 20
3.71946
 30
0.0
 40
0.0111111
 41
0.0111111
  0
VERTEX
  8
0
 10
2.88949
 20
3.80925
 30
0.0
 40
0.0111111
 41
0.0111111
  0
VERTEX
  8
0
 10
2.97342
 20
3.85878
 30
0.0
 40
0.0111111
 41
0.0111111
  0
VERTEX
  8
0
 10
3.00353
 20
3.86908
 30
0.0
 40
0.0111111
 41
0.0111111
  0
VERTEX
  8
0
 10
3.03336
 20
3.8801
 30
0.0
 40
0.0111111
 41
0.0111111
  0
VERTEX
  8
0
 10
3.12972
 20
3.89475
 30
0.0
 40
0.0111111
 41
0.0111111
  0
VERTEX
  8
0
 10
3.25782
 20
3.88319
 30
0.0
 40
0.0111111
 41
0.0111111
  0
VERTEX
  8
0
 10
3.37782
 20
3.83686
 30
0.0
 40
0.0111111
 41
0.0111111
  0
VERTEX
  8
0
 10
3.45779
 20
3.78114
 30
0.0
 40
0.0111111
 41
0.0111111
  0
VERTEX
  8
0
 10
3.47971
 20
3.75808
 30
0.0
 40
0.0111111
 41
0.0111111
  0
VERTEX
  8
0
 10
3.49615
 20
3.74143
 30
0.0
 40
0.0111111
 41
0.0111111
  0
VERTEX
  8
0
 10
3.53819
 20
3.68403
 30
0.0
 40
0.0111111
 41
0.0111111
  0
VERTEX
  8
0
 10
3.57954
 20
3.59939
 30
0.0
 40
0.0111111
 41
0.0111111
  0
VERTEX
  8
0
 10
3.60303
 20
3.50808
 30
0.0
 40
0.0111111
 41
0.0111111
  0
VERTEX
  8
0
 10
3.60906
 20
3.43728
 30
0.0
 40
0.0111111
 41
0.0111111
  0
VERTEX
  8
0
 10
3.60792
 20
3.41379
 30
0.0
 40
0.0111111
 41
0.0111111
  0
VERTEX
  8
0
 10
3.60764
 20
3.38058
 30
0.0
 40
0.0111111
 41
0.0111111
  0
VERTEX
  8
0
 10
3.60726
 20
3.04861
 30
0.0
 40
0.0111111
 41
0.0111111
  0
VERTEX
  8
0
 10
3.60644
 20
3.0154
 30
0.0
 40
0.0111111
 41
0.0111111
  0
VERTEX
  8
0
 10
3.60449
 20
2.98329
 30
0.0
 40
0.0111111
 41
0.0111111
  0
VERTEX
  8
0
 10
3.5785
 20
2.88813
 30
0.0
 40
0.0111111
 41
0.0111111
  0
VERTEX
  8
0
 10
3.51486
 20
2.77453
 30
0.0
 40
0.0111111
 41
0.0111111
  0
VERTEX
  8
0
 10
3.4221
 20
2.68317
 30
0.0
 40
0.0111111
 41
0.0111111
  0
VERTEX
  8
0
 10
3.33724
 20
2.63282
 30
0.0
 40
0.0111111
 41
0.0111111
  0
VERTEX
  8
0
 10
3.30681
 20
2.62235
 30
0.0
 40
0.0111111
 41
0.0111111
  0
VERTEX
  8
0
 10
3.29303
 20
2.61746
 30
0.0
 40
0.0111111
 41
0.0111111
  0
VERTEX
  8
0
 10
3.2219
 20
2.60113
 30
0.0
 40
0.0111111
 41
0.0111111
  0
VERTEX
  8
0
 10
3.14903
 20
2.59592
 30
0.0
 40
0.0111111
 41
0.0111111
  0
VERTEX
  8
0
 10
3.13444
 20
2.59657
 30
0.0
 40
0.0111111
 41
0.0111111
  0
SEQEND
 8
0
  0
POLYLINE
  8
0
 62
     0
 66
     1
 10
0
 20
0
 30
0.0
 70
     1
 40
0.8
 41
0.8
  0
VERTEX
  8
0
 10
5.90636
 20
2.94558
 30
0.0
 40
0.0111111
 41
0.0111111
  0
VERTEX
  8
0
 10
5.89947
 20
2.94586
 30
0.0
 40
0.0111111
 41
0.0111111
  0
VERTEX
  8
0
 10
5.87901
 20
2.95057
 30
0.0
 40
0.0111111
 41
0.0111111
  0
VERTEX
  8
0
 10
5.85411
 20
2.96272
 30
0.0
 40
0.0111111
 41
0.0111111
  0
VERTEX
  8
0
 10
5.83317
 20
2.9809
 30
0.0
 40
0.0111111
 41
0.0111111
  0
VERTEX
  8
0
 10
5.82086
 20
2.99789
 30
0.0
 40
0.0111111
 41
0.0111111
  0
VERTEX
  8
0
 10
5.81799
 20
3.00407
 30
0.0
 40
0.0111111
 41
0.0111111
  0
VERTEX
  8
0
 10
5.81386
 20
3.01238
 30
0.0
 40
0.0111111
 41
0.0111111
  0
VERTEX
  8
0
 10
5.80817
 20
3.05778
 30
0.0
 40
0.0111111
 41
0.0111111
  0
VERTEX
  8
0
 10
5.82156
 20
3.10151
 30
0.0
 40
0.0111111
 41
0.0111111
  0
VERTEX
  8
0
 10
5.82704
 20
3.10894
 30
0.0
 40
0.0111111
 41
0.0111111
  0
VERTEX
  8
0
 10
5.83094
 20
3.11458
 30
0.0
 40
0.0111111
 41
0.0111111
  0
VERTEX
  8
0
 10
5.84603
 20
3.12918
 30
0.0
 40
0.0111111
 41
0.0111111
  0
VERTEX
  8
0
 10
5.86974
 20
3.1435
 30
0.0
 40
0.0111111
 41
0.0111111
  0
VERTEX
  8
0
 10
5.89643
 20
3.15121
 30
0.0
 40
0.0111111
 41
0.0111111
  0
VERTEX
  8
0
 10
5.91737
 20
3.15229
 30
0.0
 40
0.0111111
 41
0.0111111
  0
VERTEX
  8
0
 10
5.92421
 20
3.15136
 30
0.0
 40
0.0111111
 41
0.0111111
  0
VERTEX
  8
0
 10
5.93088
 20
3.15061
 30
0.0
 40
0.0111111
 41
0.0111111
  0
VERTEX
  8
0
 10
5.95053
 20
3.14442
 30
0.0
 40
0.0111111
 41
0.0111111
  0
VERTEX
  8
0
 10
5.97401
 20
3.13069
 30
0.0
 40
0.0111111
 41
0.0111111
  0
VERTEX
  8
0
 10
5.99328
 20
3.11143
 30
0.0
 40
0.0111111
 41
0.0111111
  0
VERTEX
  8
0
 10
6.00429
 20
3.09403
 30
0.0
 40
0.0111111
 41
0.0111111
  0
VERTEX
  8
0
 10
6.00678
 20
3.08772
 30
0.0
 40
0.0111111
 41
0.0111111
  0
VERTEX
  8
0
 10
6.01031
 20
3.07932
 30
0.0
 40
0.0111111
 41
0.0111111
  0
VERTEX
  8
0
 10
6.01324
 20
3.03413
 30
0.0
 40
0.0111111
 41
0.0111111
  0
VERTEX
  8
0
 10
5.99767
 20
2.9916
 30
0.0
 40
0.0111111
 41
0.0111111
  0
VERTEX
  8
0
 10
5.99192
 20
2.98449
 30
0.0
 40
0.0111111
 41
0.0111111
  0
VERTEX
  8
0
 10
5.98682
 20
2.97808
 30
0.0
 40
0.0111111
 41
0.0111111
  0
VERTEX
  8
0
 10
5.95378
 20
2.95481
 30
0.0
 40
0.0111111
 41
0.0111111
  0
VERTEX
  8
0
 10
5.9145
 20
2.94521
 30
0.0
 40
0.0111111
 41
0.0111111
  0
VERTEX
  8
0
 10
5.90636
 20
2.94558
 30
0.0
 40
0.0111111
 41
0.0111111
  0
SEQEND
 8
0
  0
POLYLINE
  8
0
 62
     0
 66
     1
 10
0
 20
0
 30
0.0
 70
     1
 40
0.8
 41
0.8
  0
VERTEX
  8
0
 10
0.394532
 20
2.94558
 30
0.0
 40
0.0111111
 41
0.0111111
  0
VERTEX
  8
0
 10
0.387642
 20
2.94586
 30
0.0
 40
0.0111111
 41
0.0111111
  0
VERTEX
  8
0
 10
0.367188
 20
2.95057
 30
0.0
 40
0.0111111
 41
0.0111111
  0
VERTEX
  8
0
 10
0.342285
 20
2.96272
 30
0.0
 40
0.0111111
 41
0.0111111
  0
VERTEX
  8
0
 10
0.321343
 20
2.9809
 30
0.0
 40
0.0111111
 41
0.0111111
  0
VERTEX
  8
0
 10
0.309028
 20
2.99789
 30
0.0
 40
0.0111111
 41
0.0111111
  0
VERTEX
  8
0
 10
0.306153
 20
3.00407
 30
0.0
 40
0.0111111
 41
0.0111111
  0
VERTEX
  8
0
 10
0.302029
 20
3.01238
 30
0.0
 40
0.0111111
 41
0.0111111
  0
VERTEX
  8
0
 10
0.296332
 20
3.05778
 30
0.0
 40
0.0111111
 41
0.0111111
  0
VERTEX
  8
0
 10
0.309733
 20
3.10151
 30
0.0
 40
0.0111111
 41
0.0111111
  0
VERTEX
  8
0
 10
0.315212
 20
3.10894
 30
0.0
 40
0.0111111
 41
0.0111111
  0
VERTEX
  8
0
 10
0.319119
 20
3.11458
 30
0.0
 40
0.0111111
 41
0.0111111
  0
VERTEX
  8
0
 10
0.334201
 20
3.12918
 30
0.0
 40
0.0111111
 41
0.0111111
  0
VERTEX
  8
0
 10
0.35791
 20
3.1435
 30
0.0
 40
0.0111111
 41
0.0111111
  0
VERTEX
  8
0
 10
0.384603
 20
3.15121
 30
0.0
 40
0.0111111
 41
0.0111111
  0
VERTEX
  8
0
 10
0.405544
 20
3.15229
 30
0.0
 40
0.0111111
 41
0.0111111
  0
VERTEX
  8
0
 10
0.412381
 20
3.15136
 30
0.0
 40
0.0111111
 41
0.0111111
  0
VERTEX
  8
0
 10
0.419054
 20
3.15061
 30
0.0
 40
0.0111111
 41
0.0111111
  0
VERTEX
  8
0
 10
0.438693
 20
3.14442
 30
0.0
 40
0.0111111
 41
0.0111111
  0
VERTEX
  8
0
 10
0.46224
 20
3.13069
 30
0.0
 40
0.0111111
 41
0.0111111
  0
VERTEX
  8
0
 10
0.4815
 20
3.11143
 30
0.0
 40
0.0111111
 41
0.0111111
  0
VERTEX
  8
0
 10
0.492512
 20
3.09403
 30
0.0
 40
0.0111111
 41
0.0111111
  0
VERTEX
  8
0
 10
0.495008
 20
3.08772
 30
0.0
 40
0.0111111
 41
0.0111111
  0
VERTEX
  8
0
 10
0.498535
 20
3.07932
 30
0.0
 40
0.0111111
 41
0.0111111
  0
VERTEX
  8
0
 10
0.501465
 20
3.03413
 30
0.0
 40
0.0111111
 41
0.0111111
  0
VERTEX
  8
0
 10
0.48584
 20
2.9916
 30
0.0
 40
0.0111111
 41
0.0111111
  0
VERTEX
  8
0
 10
0.480089
 20
2.98449
 30
0.0
 40
0.0111111
 41
0.0111111
  0
VERTEX
  8
0
 10
0.475043
 20
2.97808
 30
0.0
 40
0.0111111
 41
0.0111111
  0
VERTEX
  8
0
 10
0.441949
 20
2.95481
 30
0.0
 40
0.0111111
 41
0.0111111
  0
VERTEX
  8
0
 10
0.402669
 20
2.94521
 30
0.0
 40
0.0111111
 41
0.0111111
  0
VERTEX
  8
0
 10
0.394532
 20
2.94558
 30
0.0
 40
0.0111111
 41
0.0111111
  0
SEQEND
 8
0
  0
POLYLINE
  8
0
 62
     0
 66
     1
 10
0
 20
0
 30
0.0
 70
     1
 40
0.8
 41
0.8
  0
VERTEX
  8
0
 10
1.96935
 20
2.88656
 30
0.0
 40
0.0111111
 41
0.0111111
  0
VERTEX
  8
0
 10
1.96246
 20
2.88683
 30
0.0
 40
0.0111111
 41
0.0111111
  0
VERTEX
  8
0
 10
1.942
 20
2.89154
 30
0.0
 40
0.0111111
 41
0.0111111
  0
VERTEX
  8
0
 10
1.9171
 20
2.90369
 30
0.0
 40
0.0111111
 41
0.0111111
  0
VERTEX
  8
0
 10
1.89615
 20
2.92188
 30
0.0
 40
0.0111111
 41
0.0111111
  0
VERTEX
  8
0
 10
1.88385
 20
2.93886
 30
0.0
 40
0.0111111
 41
0.0111111
  0
VERTEX
  8
0
 10
1.88097
 20
2.94504
 30
0.0
 40
0.0111111
 41
0.0111111
  0
VERTEX
  8
0
 10
1.87685
 20
2.95335
 30
0.0
 40
0.0111111
 41
0.0111111
  0
VERTEX
  8
0
 10
1.87115
 20
2.99869
 30
0.0
 40
0.0111111
 41
0.0111111
  0
VERTEX
  8
0
 10
1.88456
 20
3.04249
 30
0.0
 40
0.0111111
 41
0.0111111
  0
VERTEX
  8
0
 10
1.89003
 20
3.04992
 30
0.0
 40
0.0111111
 41
0.0111111
  0
VERTEX
  8
0
 10
1.89393
 20
3.05556
 30
0.0
 40
0.0111111
 41
0.0111111
  0
VERTEX
  8
0
 10
1.90901
 20
3.07015
 30
0.0
 40
0.0111111
 41
0.0111111
  0
VERTEX
  8
0
 10
1.93272
 20
3.08447
 30
0.0
 40
0.0111111
 41
0.0111111
  0
VERTEX
  8
0
 10
1.95942
 20
3.09212
 30
0.0
 40
0.0111111
 41
0.0111111
  0
VERTEX
  8
0
 10
1.98036
 20
3.09326
 30
0.0
 40
0.0111111
 41
0.0111111
  0
VERTEX
  8
0
 10
1.98719
 20
3.09229
 30
0.0
 40
0.0111111
 41
0.0111111
  0
VERTEX
  8
0
 10
1.99388
 20
3.09153
 30
0.0
 40
0.0111111
 41
0.0111111
  0
VERTEX
  8
0
 10
2.01351
 20
3.08535
 30
0.0
 40
0.0111111
 41
0.0111111
  0
VERTEX
  8
0
 10
2.037
 20
3.07161
 30
0.0
 40
0.0111111
 41
0.0111111
  0
VERTEX
  8
0
 10
2.05626
 20
3.05236
 30
0.0
 40
0.0111111
 41
0.0111111
  0
VERTEX
  8
0
 10
2.06728
 20
3.03494
 30
0.0
 40
0.0111111
 41
0.0111111
  0
VERTEX
  8
0
 10
2.06976
 20
3.02865
 30
0.0
 40
0.0111111
 41
0.0111111
  0
VERTEX
  8
0
 10
2.07329
 20
3.02024
 30
0.0
 40
0.0111111
 41
0.0111111
  0
VERTEX
  8
0
 10
2.07622
 20
2.9751
 30
0.0
 40
0.0111111
 41
0.0111111
  0
VERTEX
  8
0
 10
2.06065
 20
2.93257
 30
0.0
 40
0.0111111
 41
0.0111111
  0
VERTEX
  8
0
 10
2.0549
 20
2.92546
 30
0.0
 40
0.0111111
 41
0.0111111
  0
VERTEX
  8
0
 10
2.04981
 20
2.91906
 30
0.0
 40
0.0111111
 41
0.0111111
  0
VERTEX
  8
0
 10
2.01676
 20
2.89578
 30
0.0
 40
0.0111111
 41
0.0111111
  0
VERTEX
  8
0
 10
1.97749
 20
2.88618
 30
0.0
 40
0.0111111
 41
0.0111111
  0
VERTEX
  8
0
 10
1.96935
 20
2.88656
 30
0.0
 40
0.0111111
 41
0.0111111
  0
SEQEND
 8
0
  0
POLYLINE
  8
0
 62
     0
 66
     1
 10
0
 20
0
 30
0.0
 70
     1
 40
0.8
 41
0.8
  0
VERTEX
  8
0
 10
4.33154
 20
2.88656
 30
0.0
 40
0.0111111
 41
0.0111111
  0
VERTEX
  8
0
 10
4.32465
 20
2.88683
 30
0.0
 40
0.0111111
 41
0.0111111
  0
VERTEX
  8
0
 10
4.30419
 20
2.89154
 30
0.0
 40
0.0111111
 41
0.0111111
  0
VERTEX
  8
0
 10
4.27929
 20
2.90369
 30
0.0
 40
0.0111111
 41
0.0111111
  0
VERTEX
  8
0
 10
4.25836
 20
2.92188
 30
0.0
 40
0.0111111
 41
0.0111111
  0
VERTEX
  8
0
 10
4.24604
 20
2.93886
 30
0.0
 40
0.0111111
 41
0.0111111
  0
VERTEX
  8
0
 10
4.24317
 20
2.94504
 30
0.0
 40
0.0111111
 41
0.0111111
  0
VERTEX
  8
0
 10
4.23904
 20
2.95335
 30
0.0
 40
0.0111111
 41
0.0111111
  0
VERTEX
  8
0
 10
4.23335
 20
2.99869
 30
0.0
 40
0.0111111
 41
0.0111111
  0
VERTEX
  8
0
 10
4.24675
 20
3.04249
 30
0.0
 40
0.0111111
 41
0.0111111
  0
VERTEX
  8
0
 10
4.25222
 20
3.04992
 30
0.0
 40
0.0111111
 41
0.0111111
  0
VERTEX
  8
0
 10
4.25613
 20
3.05556
 30
0.0
 40
0.0111111
 41
0.0111111
  0
VERTEX
  8
0
 10
4.27121
 20
3.07015
 30
0.0
 40
0.0111111
 41
0.0111111
  0
VERTEX
  8
0
 10
4.29492
 20
3.08447
 30
0.0
 40
0.0111111
 41
0.0111111
  0
VERTEX
  8
0
 10
4.32161
 20
3.09212
 30
0.0
 40
0.0111111
 41
0.0111111
  0
VERTEX
  8
0
 10
4.34256
 20
3.09326
 30
0.0
 40
0.0111111
 41
0.0111111
  0
VERTEX
  8
0
 10
4.34939
 20
3.09229
 30
0.0
 40
0.0111111
 41
0.0111111
  0
VERTEX
  8
0
 10
4.35607
 20
3.09153
 30
0.0
 40
0.0111111
 41
0.0111111
  0
VERTEX
  8
0
 10
4.37571
 20
3.08535
 30
0.0
 40
0.0111111
 41
0.0111111
  0
VERTEX
  8
0
 10
4.39925
 20
3.07161
 30
0.0
 40
0.0111111
 41
0.0111111
  0
VERTEX
  8
0
 10
4.41851
 20
3.05236
 30
0.0
 40
0.0111111
 41
0.0111111
  0
VERTEX
  8
0
 10
4.42953
 20
3.03494
 30
0.0
 40
0.0111111
 41
0.0111111
  0
VERTEX
  8
0
 10
4.43201
 20
3.02865
 30
0.0
 40
0.0111111
 41
0.0111111
  0
VERTEX
  8
0
 10
4.43554
 20
3.02024
 30
0.0
 40
0.0111111
 41
0.0111111
  0
VERTEX
  8
0
 10
4.43847
 20
2.9751
 30
0.0
 40
0.0111111
 41
0.0111111
  0
VERTEX
  8
0
 10
4.42285
 20
2.93257
 30
0.0
 40
0.0111111
 41
0.0111111
  0
VERTEX
  8
0
 10
4.4171
 20
2.92546
 30
0.0
 40
0.0111111
 41
0.0111111
  0
VERTEX
  8
0
 10
4.41206
 20
2.91906
 30
0.0
 40
0.0111111
 41
0.0111111
  0
VERTEX
  8
0
 10
4.37896
 20
2.89578
 30
0.0
 40
0.0111111
 41
0.0111111
  0
VERTEX
  8
0
 10
4.33968
 20
2.88618
 30
0.0
 40
0.0111111
 41
0.0111111
  0
VERTEX
  8
0
 10
4.33154
 20
2.88656
 30
0.0
 40
0.0111111
 41
0.0111111
  0
SEQEND
 8
0
  0
POLYLINE
  8
0
 62
     0
 66
     1
 10
0
 20
0
 30
0.0
 70
     1
 40
0.8
 41
0.8
  0
VERTEX
  8
0
 10
1.08371
 20
2.91737
 30
0.0
 40
0.0111111
 41
0.0111111
  0
VERTEX
  8
0
 10
1.08306
 20
2.92404
 30
0.0
 40
0.0111111
 41
0.0111111
  0
VERTEX
  8
0
 10
1.08474
 20
2.94444
 30
0.0
 40
0.0111111
 41
0.0111111
  0
VERTEX
  8
0
 10
1.09288
 20
2.97021
 30
0.0
 40
0.0111111
 41
0.0111111
  0
VERTEX
  8
0
 10
1.10726
 20
2.99306
 30
0.0
 40
0.0111111
 41
0.0111111
  0
VERTEX
  8
0
 10
1.12169
 20
3.00754
 30
0.0
 40
0.0111111
 41
0.0111111
  0
VERTEX
  8
0
 10
1.12723
 20
3.01133
 30
0.0
 40
0.0111111
 41
0.0111111
  0
VERTEX
  8
0
 10
1.13477
 20
3.01676
 30
0.0
 40
0.0111111
 41
0.0111111
  0
VERTEX
  8
0
 10
1.17893
 20
3.02983
 30
0.0
 40
0.0111111
 41
0.0111111
  0
VERTEX
  8
0
 10
1.2245
 20
3.02349
 30
0.0
 40
0.0111111
 41
0.0111111
  0
VERTEX
  8
0
 10
1.2328
 20
3.01921
 30
0.0
 40
0.0111111
 41
0.0111111
  0
VERTEX
  8
0
 10
1.23904
 20
3.01622
 30
0.0
 40
0.0111111
 41
0.0111111
  0
VERTEX
  8
0
 10
1.25602
 20
3.00342
 30
0.0
 40
0.0111111
 41
0.0111111
  0
VERTEX
  8
0
 10
1.27403
 20
2.98182
 30
0.0
 40
0.0111111
 41
0.0111111
  0
VERTEX
  8
0
 10
1.2857
 20
2.95628
 30
0.0
 40
0.0111111
 41
0.0111111
  0
VERTEX
  8
0
 10
1.28993
 20
2.93544
 30
0.0
 40
0.0111111
 41
0.0111111
  0
VERTEX
  8
0
 10
1.28998
 20
2.92844
 30
0.0
 40
0.0111111
 41
0.0111111
  0
VERTEX
  8
0
 10
1.29015
 20
2.9215
 30
0.0
 40
0.0111111
 41
0.0111111
  0
VERTEX
  8
0
 10
1.28657
 20
2.9005
 30
0.0
 40
0.0111111
 41
0.0111111
  0
VERTEX
  8
0
 10
1.27566
 20
2.87451
 30
0.0
 40
0.0111111
 41
0.0111111
  0
VERTEX
  8
0
 10
1.2583
 20
2.85238
 30
0.0
 40
0.0111111
 41
0.0111111
  0
VERTEX
  8
0
 10
1.24164
 20
2.83903
 30
0.0
 40
0.0111111
 41
0.0111111
  0
VERTEX
  8
0
 10
1.23551
 20
2.83578
 30
0.0
 40
0.0111111
 41
0.0111111
  0
VERTEX
  8
0
 10
1.22748
 20
2.83137
 30
0.0
 40
0.0111111
 41
0.0111111
  0
VERTEX
  8
0
 10
1.18294
 20
2.82362
 30
0.0
 40
0.0111111
 41
0.0111111
  0
VERTEX
  8
0
 10
1.13905
 20
2.83458
 30
0.0
 40
0.0111111
 41
0.0111111
  0
VERTEX
  8
0
 10
1.1314
 20
2.83951
 30
0.0
 40
0.0111111
 41
0.0111111
  0
VERTEX
  8
0
 10
1.12468
 20
2.84375
 30
0.0
 40
0.0111111
 41
0.0111111
  0
VERTEX
  8
0
 10
1.09853
 20
2.87294
 30
0.0
 40
0.0111111
 41
0.0111111
  0
VERTEX
  8
0
 10
1.08442
 20
2.9095
 30
0.0
 40
0.0111111
 41
0.0111111
  0
VERTEX
  8
0
 10
1.08371
 20
2.91737
 30
0.0
 40
0.0111111
 41
0.0111111
  0
SEQEND
 8
0
  0
POLYLINE
  8
0
 62
     0
 66
     1
 10
0
 20
0
 30
0.0
 70
     1
 40
0.8
 41
0.8
  0
VERTEX
  8
0
 10
3.76226
 20
2.37494
 30
0.0
 40
0.0111111
 41
0.0111111
  0
VERTEX
  8
0
 10
3.75629
 20
2.37511
 30
0.0
 40
0.0111111
 41
0.0111111
  0
VERTEX
  8
0
 10
3.73861
 20
2.38064
 30
0.0
 40
0.0111111
 41
0.0111111
  0
VERTEX
  8
0
 10
3.71897
 20
2.39481
 30
0.0
 40
0.0111111
 41
0.0111111
  0
VERTEX
  8
0
 10
3.70574
 20
2.41504
 30
0.0
 40
0.0111111
 41
0.0111111
  0
VERTEX
  8
0
 10
3.70101
 20
2.43294
 30
0.0
 40
0.0111111
 41
0.0111111
  0
VERTEX
  8
0
 10
3.70117
 20
2.43886
 30
0.0
 40
0.0111111
 41
0.0111111
  0
VERTEX
  8
0
 10
3.70117
 20
2.47211
 30
0.0
 40
0.0111111
 41
0.0111111
  0
VERTEX
  8
0
 10
3.70122
 20
2.80447
 30
0.0
 40
0.0111111
 41
0.0111111
  0
VERTEX
  8
0
 10
3.70139
 20
2.83768
 30
0.0
 40
0.0111111
 41
0.0111111
  0
VERTEX
  8
0
 10
3.70171
 20
2.84364
 30
0.0
 40
0.0111111
 41
0.0111111
  0
VERTEX
  8
0
 10
3.7079
 20
2.86128
 30
0.0
 40
0.0111111
 41
0.0111111
  0
VERTEX
  8
0
 10
3.72293
 20
2.88049
 30
0.0
 40
0.0111111
 41
0.0111111
  0
VERTEX
  8
0
 10
3.74387
 20
2.89296
 30
0.0
 40
0.0111111
 41
0.0111111
  0
VERTEX
  8
0
 10
3.7621
 20
2.89692
 30
0.0
 40
0.0111111
 41
0.0111111
  0
VERTEX
  8
0
 10
3.76807
 20
2.89649
 30
0.0
 40
0.0111111
 41
0.0111111
  0
VERTEX
  8
0
 10
3.77399
 20
2.89638
 30
0.0
 40
0.0111111
 41
0.0111111
  0
VERTEX
  8
0
 10
3.79167
 20
2.89085
 30
0.0
 40
0.0111111
 41
0.0111111
  0
VERTEX
  8
0
 10
3.81131
 20
2.87668
 30
0.0
 40
0.0111111
 41
0.0111111
  0
VERTEX
  8
0
 10
3.82454
 20
2.85644
 30
0.0
 40
0.0111111
 41
0.0111111
  0
VERTEX
  8
0
 10
3.82926
 20
2.83854
 30
0.0
 40
0.0111111
 41
0.0111111
  0
VERTEX
  8
0
 10
3.82915
 20
2.83257
 30
0.0
 40
0.0111111
 41
0.0111111
  0
VERTEX
  8
0
 10
3.8291
 20
2.79937
 30
0.0
 40
0.0111111
 41
0.0111111
  0
VERTEX
  8
0
 10
3.82904
 20
2.46696
 30
0.0
 40
0.0111111
 41
0.0111111
  0
VERTEX
  8
0
 10
3.82894
 20
2.43371
 30
0.0
 40
0.0111111
 41
0.0111111
  0
VERTEX
  8
0
 10
3.82856
 20
2.42774
 30
0.0
 40
0.0111111
 41
0.0111111
  0
VERTEX
  8
0
 10
3.82232
 20
2.41004
 30
0.0
 40
0.0111111
 41
0.0111111
  0
VERTEX
  8
0
 10
3.8074
 20
2.39094
 30
0.0
 40
0.0111111
 41
0.0111111
  0
VERTEX
  8
0
 10
3.78651
 20
2.37853
 30
0.0
 40
0.0111111
 41
0.0111111
  0
VERTEX
  8
0
 10
3.76824
 20
2.37463
 30
0.0
 40
0.0111111
 41
0.0111111
  0
VERTEX
  8
0
 10
3.76226
 20
2.37494
 30
0.0
 40
0.0111111
 41
0.0111111
  0
SEQEND
 8
0
  0
POLYLINE
  8
0
 62
     0
 66
     1
 10
0
 20
0
 30
0.0
 70
     1
 40
0.8
 41
0.8
  0
VERTEX
  8
0
 10
2.54226
 20
2.37494
 30
0.0
 40
0.0111111
 41
0.0111111
  0
VERTEX
  8
0
 10
2.53629
 20
2.37511
 30
0.0
 40
0.0111111
 41
0.0111111
  0
VERTEX
  8
0
 10
2.51861
 20
2.38064
 30
0.0
 40
0.0111111
 41
0.0111111
  0
VERTEX
  8
0
 10
2.49897
 20
2.39481
 30
0.0
 40
0.0111111
 41
0.0111111
  0
VERTEX
  8
0
 10
2.48574
 20
2.41504
 30
0.0
 40
0.0111111
 41
0.0111111
  0
VERTEX
  8
0
 10
2.48101
 20
2.43294
 30
0.0
 40
0.0111111
 41
0.0111111
  0
VERTEX
  8
0
 10
2.48118
 20
2.43886
 30
0.0
 40
0.0111111
 41
0.0111111
  0
VERTEX
  8
0
 10
2.48118
 20
2.47211
 30
0.0
 40
0.0111111
 41
0.0111111
  0
VERTEX
  8
0
 10
2.48122
 20
2.80447
 30
0.0
 40
0.0111111
 41
0.0111111
  0
VERTEX
  8
0
 10
2.48139
 20
2.83768
 30
0.0
 40
0.0111111
 41
0.0111111
  0
VERTEX
  8
0
 10
2.48172
 20
2.84364
 30
0.0
 40
0.0111111
 41
0.0111111
  0
VERTEX
  8
0
 10
2.4879
 20
2.86128
 30
0.0
 40
0.0111111
 41
0.0111111
  0
VERTEX
  8
0
 10
2.50293
 20
2.88049
 30
0.0
 40
0.0111111
 41
0.0111111
  0
VERTEX
  8
0
 10
2.52387
 20
2.89296
 30
0.0
 40
0.0111111
 41
0.0111111
  0
VERTEX
  8
0
 10
2.5421
 20
2.89692
 30
0.0
 40
0.0111111
 41
0.0111111
  0
VERTEX
  8
0
 10
2.54807
 20
2.89649
 30
0.0
 40
0.0111111
 41
0.0111111
  0
VERTEX
  8
0
 10
2.55399
 20
2.89638
 30
0.0
 40
0.0111111
 41
0.0111111
  0
VERTEX
  8
0
 10
2.57167
 20
2.89085
 30
0.0
 40
0.0111111
 41
0.0111111
  0
VERTEX
  8
0
 10
2.59131
 20
2.87668
 30
0.0
 40
0.0111111
 41
0.0111111
  0
VERTEX
  8
0
 10
2.60454
 20
2.85644
 30
0.0
 40
0.0111111
 41
0.0111111
  0
VERTEX
  8
0
 10
2.60926
 20
2.83854
 30
0.0
 40
0.0111111
 41
0.0111111
  0
VERTEX
  8
0
 10
2.60915
 20
2.83257
 30
0.0
 40
0.0111111
 41
0.0111111
  0
VERTEX
  8
0
 10
2.6091
 20
2.79937
 30
0.0
 40
0.0111111
 41
0.0111111
  0
VERTEX
  8
0
 10
2.60906
 20
2.46701
 30
0.0
 40
0.0111111
 41
0.0111111
  0
VERTEX
  8
0
 10
2.60894
 20
2.43375
 30
0.0
 40
0.0111111
 41
0.0111111
  0
VERTEX
  8
0
 10
2.60856
 20
2.42779
 30
0.0
 40
0.0111111
 41
0.0111111
  0
VERTEX
  8
0
 10
2.60232
 20
2.4101
 30
0.0
 40
0.0111111
 41
0.0111111
  0
VERTEX
  8
0
 10
2.58735
 20
2.39094
 30
0.0
 40
0.0111111
 41
0.0111111
  0
VERTEX
  8
0
 10
2.56651
 20
2.37858
 30
0.0
 40
0.0111111
 41
0.0111111
  0
VERTEX
  8
0
 10
2.54818
 20
2.37463
 30
0.0
 40
0.0111111
 41
0.0111111
  0
VERTEX
  8
0
 10
2.54221
 20
2.37494
 30
0.0
 40
0.0111111
 41
0.0111111
  0
VERTEX
  8
0
 10
2.54226
 20
2.37494
 30
0.0
 40
0.0111111
 41
0.0111111
  0
SEQEND
 8
0
  0
POLYLINE
  8
0
 62
     0
 66
     1
 10
0
 20
0
 30
0.0
 70
     1
 40
0.8
 41
0.8
  0
VERTEX
  8
0
 10
2.21733
 20
2.21485
 30
0.0
 40
0.0111111
 41
0.0111111
  0
VERTEX
  8
0
 10
2.20953
 20
2.2155
 30
0.0
 40
0.0111111
 41
0.0111111
  0
VERTEX
  8
0
 10
2.18658
 20
2.22271
 30
0.0
 40
0.0111111
 41
0.0111111
  0
VERTEX
  8
0
 10
2.15978
 20
2.23958
 30
0.0
 40
0.0111111
 41
0.0111111
  0
VERTEX
  8
0
 10
2.13911
 20
2.26367
 30
0.0
 40
0.0111111
 41
0.0111111
  0
VERTEX
  8
0
 10
2.12869
 20
2.28532
 30
0.0
 40
0.0111111
 41
0.0111111
  0
VERTEX
  8
0
 10
2.12696
 20
2.29292
 30
0.0
 40
0.0111111
 41
0.0111111
  0
VERTEX
  8
0
 10
2.1256
 20
2.2985
 30
0.0
 40
0.0111111
 41
0.0111111
  0
VERTEX
  8
0
 10
2.12369
 20
2.32688
 30
0.0
 40
0.0111111
 41
0.0111111
  0
VERTEX
  8
0
 10
2.12408
 20
2.35547
 30
0.0
 40
0.0111111
 41
0.0111111
  0
VERTEX
  8
0
 10
2.12386
 20
2.36111
 30
0.0
 40
0.0111111
 41
0.0111111
  0
VERTEX
  8
0
 10
2.12381
 20
2.37283
 30
0.0
 40
0.0111111
 41
0.0111111
  0
VERTEX
  8
0
 10
2.12369
 20
2.48969
 30
0.0
 40
0.0111111
 41
0.0111111
  0
VERTEX
  8
0
 10
2.12354
 20
2.50136
 30
0.0
 40
0.0111111
 41
0.0111111
  0
VERTEX
  8
0
 10
2.12213
 20
2.50982
 30
0.0
 40
0.0111111
 41
0.0111111
  0
VERTEX
  8
0
 10
2.12435
 20
2.53614
 30
0.0
 40
0.0111111
 41
0.0111111
  0
VERTEX
  8
0
 10
2.13715
 20
2.56847
 30
0.0
 40
0.0111111
 41
0.0111111
  0
VERTEX
  8
0
 10
2.15967
 20
2.59506
 30
0.0
 40
0.0111111
 41
0.0111111
  0
VERTEX
  8
0
 10
2.18164
 20
2.60975
 30
0.0
 40
0.0111111
 41
0.0111111
  0
VERTEX
  8
0
 10
2.18972
 20
2.61262
 30
0.0
 40
0.0111111
 41
0.0111111
  0
VERTEX
  8
0
 10
2.1971
 20
2.61561
 30
0.0
 40
0.0111111
 41
0.0111111
  0
VERTEX
  8
0
 10
2.2214
 20
2.61947
 30
0.0
 40
0.0111111
 41
0.0111111
  0
VERTEX
  8
0
 10
2.25358
 20
2.61615
 30
0.0
 40
0.0111111
 41
0.0111111
  0
VERTEX
  8
0
 10
2.28336
 20
2.60335
 30
0.0
 40
0.0111111
 41
0.0111111
  0
VERTEX
  8
0
 10
2.30268
 20
2.58817
 30
0.0
 40
0.0111111
 41
0.0111111
  0
VERTEX
  8
0
 10
2.30772
 20
2.58192
 30
0.0
 40
0.0111111
 41
0.0111111
  0
VERTEX
  8
0
 10
2.31233
 20
2.57656
 30
0.0
 40
0.0111111
 41
0.0111111
  0
VERTEX
  8
0
 10
2.32758
 20
2.54508
 30
0.0
 40
0.0111111
 41
0.0111111
  0
VERTEX
  8
0
 10
2.33257
 20
2.51036
 30
0.0
 40
0.0111111
 41
0.0111111
  0
VERTEX
  8
0
 10
2.33214
 20
2.50336
 30
0.0
 40
0.0111111
 41
0.0111111
  0
VERTEX
  8
0
 10
2.33192
 20
2.48731
 30
0.0
 40
0.0111111
 41
0.0111111
  0
VERTEX
  8
0
 10
2.33051
 20
2.32639
 30
0.0
 40
0.0111111
 41
0.0111111
  0
VERTEX
  8
0
 10
2.33024
 20
2.31028
 30
0.0
 40
0.0111111
 41
0.0111111
  0
VERTEX
  8
0
 10
2.32981
 20
2.30236
 30
0.0
 40
0.0111111
 41
0.0111111
  0
VERTEX
  8
0
 10
2.32292
 20
2.27869
 30
0.0
 40
0.0111111
 41
0.0111111
  0
VERTEX
  8
0
 10
2.30599
 20
2.25108
 30
0.0
 40
0.0111111
 41
0.0111111
  0
VERTEX
  8
0
 10
2.28157
 20
2.22982
 30
0.0
 40
0.0111111
 41
0.0111111
  0
VERTEX
  8
0
 10
2.25939
 20
2.21912
 30
0.0
 40
0.0111111
 41
0.0111111
  0
VERTEX
  8
0
 10
2.25163
 20
2.21733
 30
0.0
 40
0.0111111
 41
0.0111111
  0
VERTEX
  8
0
 10
2.24881
 20
2.21669
 30
0.0
 40
0.0111111
 41
0.0111111
  0
VERTEX
  8
0
 10
2.22021
 20
2.21463
 30
0.0
 40
0.0111111
 41
0.0111111
  0
VERTEX
  8
0
 10
2.21733
 20
2.21485
 30
0.0
 40
0.0111111
 41
0.0111111
  0
SEQEND
 8
0
  0
POLYLINE
  8
0
 62
     0
 66
     1
 10
0
 20
0
 30
0.0
 70
     1
 40
0.8
 41
0.8
  0
VERTEX
  8
0
 10
6.10508
 20
1.61729
 30
0.0
 40
0.0111111
 41
0.0111111
  0
VERTEX
  8
0
 10
6.09924
 20
1.61746
 30
0.0
 40
0.0111111
 41
0.0111111
  0
VERTEX
  8
0
 10
6.08176
 20
1.62299
 30
0.0
 40
0.0111111
 41
0.0111111
  0
VERTEX
  8
0
 10
6.06267
 20
1.63732
 30
0.0
 40
0.0111111
 41
0.0111111
  0
VERTEX
  8
0
 10
6.05007
 20
1.65761
 30
0.0
 40
0.0111111
 41
0.0111111
  0
VERTEX
  8
0
 10
6.04601
 20
1.67546
 30
0.0
 40
0.0111111
 41
0.0111111
  0
VERTEX
  8
0
 10
6.04639
 20
1.68126
 30
0.0
 40
0.0111111
 41
0.0111111
  0
VERTEX
  8
0
 10
6.04639
 20
1.72086
 30
0.0
 40
0.0111111
 41
0.0111111
  0
VERTEX
  8
0
 10
6.04644
 20
2.11692
 30
0.0
 40
0.0111111
 41
0.0111111
  0
VERTEX
  8
0
 10
6.0466
 20
2.15653
 30
0.0
 40
0.0111111
 41
0.0111111
  0
VERTEX
  8
0
 10
6.04693
 20
2.16249
 30
0.0
 40
0.0111111
 41
0.0111111
  0
VERTEX
  8
0
 10
6.05344
 20
2.18001
 30
0.0
 40
0.0111111
 41
0.0111111
  0
VERTEX
  8
0
 10
6.06901
 20
2.19868
 30
0.0
 40
0.0111111
 41
0.0111111
  0
VERTEX
  8
0
 10
6.09039
 20
2.21029
 30
0.0
 40
0.0111111
 41
0.0111111
  0
VERTEX
  8
0
 10
6.10883
 20
2.21317
 30
0.0
 40
0.0111111
 41
0.0111111
  0
VERTEX
  8
0
 10
6.11475
 20
2.21235
 30
0.0
 40
0.0111111
 41
0.0111111
  0
VERTEX
  8
0
 10
6.12039
 20
2.21186
 30
0.0
 40
0.0111111
 41
0.0111111
  0
VERTEX
  8
0
 10
6.13699
 20
2.20551
 30
0.0
 40
0.0111111
 41
0.0111111
  0
VERTEX
  8
0
 10
6.15483
 20
2.19075
 30
0.0
 40
0.0111111
 41
0.0111111
  0
VERTEX
  8
0
 10
6.16635
 20
2.17057
 30
0.0
 40
0.0111111
 41
0.0111111
  0
VERTEX
  8
0
 10
6.16982
 20
2.15315
 30
0.0
 40
0.0111111
 41
0.0111111
  0
VERTEX
  8
0
 10
6.16943
 20
2.14746
 30
0.0
 40
0.0111111
 41
0.0111111
  0
VERTEX
  8
0
 10
6.16938
 20
2.10796
 30
0.0
 40
0.0111111
 41
0.0111111
  0
VERTEX
  8
0
 10
6.16928
 20
1.71272
 30
0.0
 40
0.0111111
 41
0.0111111
  0
VERTEX
  8
0
 10
6.16917
 20
1.67318
 30
0.0
 40
0.0111111
 41
0.0111111
  0
VERTEX
  8
0
 10
6.16872
 20
1.66749
 30
0.0
 40
0.0111111
 41
0.0111111
  0
VERTEX
  8
0
 10
6.16265
 20
1.65067
 30
0.0
 40
0.0111111
 41
0.0111111
  0
VERTEX
  8
0
 10
6.14822
 20
1.63249
 30
0.0
 40
0.0111111
 41
0.0111111
  0
VERTEX
  8
0
 10
6.12825
 20
1.62071
 30
0.0
 40
0.0111111
 41
0.0111111
  0
VERTEX
  8
0
 10
6.11079
 20
1.61697
 30
0.0
 40
0.0111111
 41
0.0111111
  0
VERTEX
  8
0
 10
6.10508
 20
1.61729
 30
0.0
 40
0.0111111
 41
0.0111111
  0
SEQEND
 8
0
  0
POLYLINE
  8
0
 62
     0
 66
     1
 10
0
 20
0
 30
0.0
 70
     1
 40
0.8
 41
0.8
  0
VERTEX
  8
0
 10
0.199599
 20
1.61729
 30
0.0
 40
0.0111111
 41
0.0111111
  0
VERTEX
  8
0
 10
0.193739
 20
1.61746
 30
0.0
 40
0.0111111
 41
0.0111111
  0
VERTEX
  8
0
 10
0.176269
 20
1.62299
 30
0.0
 40
0.0111111
 41
0.0111111
  0
VERTEX
  8
0
 10
0.157172
 20
1.63732
 30
0.0
 40
0.0111111
 41
0.0111111
  0
VERTEX
  8
0
 10
0.144586
 20
1.65761
 30
0.0
 40
0.0111111
 41
0.0111111
  0
VERTEX
  8
0
 10
0.140517
 20
1.67546
 30
0.0
 40
0.0111111
 41
0.0111111
  0
VERTEX
  8
0
 10
0.140896
 20
1.68126
 30
0.0
 40
0.0111111
 41
0.0111111
  0
VERTEX
  8
0
 10
0.140896
 20
1.72092
 30
0.0
 40
0.0111111
 41
0.0111111
  0
VERTEX
  8
0
 10
0.141004
 20
2.11724
 30
0.0
 40
0.0111111
 41
0.0111111
  0
VERTEX
  8
0
 10
0.141168
 20
2.15685
 30
0.0
 40
0.0111111
 41
0.0111111
  0
VERTEX
  8
0
 10
0.141547
 20
2.16282
 30
0.0
 40
0.0111111
 41
0.0111111
  0
VERTEX
  8
0
 10
0.148058
 20
2.18024
 30
0.0
 40
0.0111111
 41
0.0111111
  0
VERTEX
  8
0
 10
0.163629
 20
2.19879
 30
0.0
 40
0.0111111
 41
0.0111111
  0
VERTEX
  8
0
 10
0.185004
 20
2.21029
 30
0.0
 40
0.0111111
 41
0.0111111
  0
VERTEX
  8
0
 10
0.203342
 20
2.21317
 30
0.0
 40
0.0111111
 41
0.0111111
  0
VERTEX
  8
0
 10
0.209256
 20
2.21235
 30
0.0
 40
0.0111111
 41
0.0111111
  0
VERTEX
  8
0
 10
0.214899
 20
2.21186
 30
0.0
 40
0.0111111
 41
0.0111111
  0
VERTEX
  8
0
 10
0.231446
 20
2.20551
 30
0.0
 40
0.0111111
 41
0.0111111
  0
VERTEX
  8
0
 10
0.249349
 20
2.19075
 30
0.0
 40
0.0111111
 41
0.0111111
  0
VERTEX
  8
0
 10
0.260796
 20
2.17057
 30
0.0
 40
0.0111111
 41
0.0111111
  0
VERTEX
  8
0
 10
0.264324
 20
2.15315
 30
0.0
 40
0.0111111
 41
0.0111111
  0
VERTEX
  8
0
 10
0.263943
 20
2.14746
 30
0.0
 40
0.0111111
 41
0.0111111
  0
VERTEX
  8
0
 10
0.263889
 20
2.10796
 30
0.0
 40
0.0111111
 41
0.0111111
  0
VERTEX
  8
0
 10
0.263781
 20
1.71272
 30
0.0
 40
0.0111111
 41
0.0111111
  0
VERTEX
  8
0
 10
0.263672
 20
1.67318
 30
0.0
 40
0.0111111
 41
0.0111111
  0
VERTEX
  8
0
 10
0.263238
 20
1.66749
 30
0.0
 40
0.0111111
 41
0.0111111
  0
VERTEX
  8
0
 10
0.257161
 20
1.65067
 30
0.0
 40
0.0111111
 41
0.0111111
  0
VERTEX
  8
0
 10
0.242731
 20
1.63249
 30
0.0
 40
0.0111111
 41
0.0111111
  0
VERTEX
  8
0
 10
0.222765
 20
1.62071
 30
0.0
 40
0.0111111
 41
0.0111111
  0
VERTEX
  8
0
 10
0.205296
 20
1.61697
 30
0.0
 40
0.0111111
 41
0.0111111
  0
VERTEX
  8
0
 10
0.199599
 20
1.61729
 30
0.0
 40
0.0111111
 41
0.0111111
  0
SEQEND
 8
0
  0
POLYLINE
  8
0
 62
     0
 66
     1
 10
0
 20
0
 30
0.0
 70
     1
 40
0.8
 41
0.8
  0
VERTEX
  8
0
 10
5.90462
 20
0.365126
 30
0.0
 40
0.0111111
 41
0.0111111
  0
VERTEX
  8
0
 10
5.89535
 20
0.365506
 30
0.0
 40
0.0111111
 41
0.0111111
  0
VERTEX
  8
0
 10
5.86774
 20
0.371853
 30
0.0
 40
0.0111111
 41
0.0111111
  0
VERTEX
  8
0
 10
5.83399
 20
0.388129
 30
0.0
 40
0.0111111
 41
0.0111111
  0
VERTEX
  8
0
 10
5.80556
 20
0.412651
 30
0.0
 40
0.0111111
 41
0.0111111
  0
VERTEX
  8
0
 10
5.78879
 20
0.435493
 30
0.0
 40
0.0111111
 41
0.0111111
  0
VERTEX
  8
0
 10
5.78483
 20
0.443847
 30
0.0
 40
0.0111111
 41
0.0111111
  0
VERTEX
  8
0
 10
5.78071
 20
0.452094
 30
0.0
 40
0.0111111
 41
0.0111111
  0
VERTEX
  8
0
 10
5.773
 20
0.479221
 30
0.0
 40
0.0111111
 41
0.0111111
  0
VERTEX
  8
0
 10
5.771
 20
0.516385
 30
0.0
 40
0.0111111
 41
0.0111111
  0
VERTEX
  8
0
 10
5.77865
 20
0.552789
 30
0.0
 40
0.0111111
 41
0.0111111
  0
VERTEX
  8
0
 10
5.79042
 20
0.578342
 30
0.0
 40
0.0111111
 41
0.0111111
  0
VERTEX
  8
0
 10
5.79579
 20
0.585829
 30
0.0
 40
0.0111111
 41
0.0111111
  0
VERTEX
  8
0
 10
5.80106
 20
0.593588
 30
0.0
 40
0.0111111
 41
0.0111111
  0
VERTEX
  8
0
 10
5.8214
 20
0.613824
 30
0.0
 40
0.0111111
 41
0.0111111
  0
VERTEX
  8
0
 10
5.85368
 20
0.633789
 30
0.0
 40
0.0111111
 41
0.0111111
  0
VERTEX
  8
0
 10
5.89003
 20
0.644586
 30
0.0
 40
0.0111111
 41
0.0111111
  0
VERTEX
  8
0
 10
5.91868
 20
0.646322
 30
0.0
 40
0.0111111
 41
0.0111111
  0
VERTEX
  8
0
 10
5.928
 20
0.645074
 30
0.0
 40
0.0111111
 41
0.0111111
  0
VERTEX
  8
0
 10
5.93712
 20
0.644043
 30
0.0
 40
0.0111111
 41
0.0111111
  0
VERTEX
  8
0
 10
5.96408
 20
0.635742
 30
0.0
 40
0.0111111
 41
0.0111111
  0
VERTEX
  8
0
 10
5.99631
 20
0.617133
 30
0.0
 40
0.0111111
 41
0.0111111
  0
VERTEX
  8
0
 10
6.02274
 20
0.590875
 30
0.0
 40
0.0111111
 41
0.0111111
  0
VERTEX
  8
0
 10
6.03782
 20
0.567057
 30
0.0
 40
0.0111111
 41
0.0111111
  0
VERTEX
  8
0
 10
6.04124
 20
0.558485
 30
0.0
 40
0.0111111
 41
0.0111111
  0
VERTEX
  8
0
 10
6.04476
 20
0.550076
 30
0.0
 40
0.0111111
 41
0.0111111
  0
VERTEX
  8
0
 10
6.05057
 20
0.522624
 30
0.0
 40
0.0111111
 41
0.0111111
  0
VERTEX
  8
0
 10
6.05007
 20
0.485568
 30
0.0
 40
0.0111111
 41
0.0111111
  0
VERTEX
  8
0
 10
6.0401
 20
0.449924
 30
0.0
 40
0.0111111
 41
0.0111111
  0
VERTEX
  8
0
 10
6.02681
 20
0.425239
 30
0.0
 40
0.0111111
 41
0.0111111
  0
VERTEX
  8
0
 10
6.02106
 20
0.418078
 30
0.0
 40
0.0111111
 41
0.0111111
  0
VERTEX
  8
0
 10
6.01594
 20
0.411621
 30
0.0
 40
0.0111111
 41
0.0111111
  0
VERTEX
  8
0
 10
5.9975
 20
0.394749
 30
0.0
 40
0.0111111
 41
0.0111111
  0
VERTEX
  8
0
 10
5.96918
 20
0.377658
 30
0.0
 40
0.0111111
 41
0.0111111
  0
VERTEX
  8
0
 10
5.93767
 20
0.367567
 30
0.0
 40
0.0111111
 41
0.0111111
  0
VERTEX
  8
0
 10
5.91282
 20
0.364746
 30
0.0
 40
0.0111111
 41
0.0111111
  0
VERTEX
  8
0
 10
5.90462
 20
0.365126
 30
0.0
 40
0.0111111
 41
0.0111111
  0
SEQEND
 8
0
  0
POLYLINE
  8
0
 62
     0
 66
     1
 10
0
 20
0
 30
0.0
 70
     1
 40
0.8
 41
0.8
  0
VERTEX
  8
0
 10
0.39285
 20
0.365126
 30
0.0
 40
0.0111111
 41
0.0111111
  0
VERTEX
  8
0
 10
0.383518
 20
0.365506
 30
0.0
 40
0.0111111
 41
0.0111111
  0
VERTEX
  8
0
 10
0.355686
 20
0.371907
 30
0.0
 40
0.0111111
 41
0.0111111
  0
VERTEX
  8
0
 10
0.321832
 20
0.3884
 30
0.0
 40
0.0111111
 41
0.0111111
  0
VERTEX
  8
0
 10
0.293349
 20
0.41314
 30
0.0
 40
0.0111111
 41
0.0111111
  0
VERTEX
  8
0
 10
0.276585
 20
0.436199
 30
0.0
 40
0.0111111
 41
0.0111111
  0
VERTEX
  8
0
 10
0.272678
 20
0.444607
 30
0.0
 40
0.0111111
 41
0.0111111
  0
VERTEX
  8
0
 10
0.268554
 20
0.452908
 30
0.0
 40
0.0111111
 41
0.0111111
  0
VERTEX
  8
0
 10
0.26096
 20
0.480197
 30
0.0
 40
0.0111111
 41
0.0111111
  0
VERTEX
  8
0
 10
0.259278
 20
0.517578
 30
0.0
 40
0.0111111
 41
0.0111111
  0
VERTEX
  8
0
 10
0.267307
 20
0.554144
 30
0.0
 40
0.0111111
 41
0.0111111
  0
VERTEX
  8
0
 10
0.279406
 20
0.579699
 30
0.0
 40
0.0111111
 41
0.0111111
  0
VERTEX
  8
0
 10
0.284885
 20
0.587185
 30
0.0
 40
0.0111111
 41
0.0111111
  0
VERTEX
  8
0
 10
0.290201
 20
0.594835
 30
0.0
 40
0.0111111
 41
0.0111111
  0
VERTEX
  8
0
 10
0.31071
 20
0.614746
 30
0.0
 40
0.0111111
 41
0.0111111
  0
VERTEX
  8
0
 10
0.34299
 20
0.634278
 30
0.0
 40
0.0111111
 41
0.0111111
  0
VERTEX
  8
0
 10
0.379286
 20
0.644694
 30
0.0
 40
0.0111111
 41
0.0111111
  0
VERTEX
  8
0
 10
0.407769
 20
0.646268
 30
0.0
 40
0.0111111
 41
0.0111111
  0
VERTEX
  8
0
 10
0.417046
 20
0.644965
 30
0.0
 40
0.0111111
 41
0.0111111
  0
VERTEX
  8
0
 10
0.426107
 20
0.643881
 30
0.0
 40
0.0111111
 41
0.0111111
  0
VERTEX
  8
0
 10
0.452854
 20
0.635471
 30
0.0
 40
0.0111111
 41
0.0111111
  0
VERTEX
  8
0
 10
0.484864
 20
0.616863
 30
0.0
 40
0.0111111
 41
0.0111111
  0
VERTEX
  8
0
 10
0.511068
 20
0.590712
 30
0.0
 40
0.0111111
 41
0.0111111
  0
VERTEX
  8
0
 10
0.526042
 20
0.567057
 30
0.0
 40
0.0111111
 41
0.0111111
  0
VERTEX
  8
0
 10
0.529406
 20
0.558485
 30
0.0
 40
0.0111111
 41
0.0111111
  0
VERTEX
  8
0
 10
0.532932
 20
0.550076
 30
0.0
 40
0.0111111
 41
0.0111111
  0
VERTEX
  8
0
 10
0.538738
 20
0.522624
 30
0.0
 40
0.0111111
 41
0.0111111
  0
VERTEX
  8
0
 10
0.538249
 20
0.485568
 30
0.0
 40
0.0111111
 41
0.0111111
  0
VERTEX
  8
0
 10
0.528267
 20
0.449924
 30
0.0
 40
0.0111111
 41
0.0111111
  0
VERTEX
  8
0
 10
0.514974
 20
0.425239
 30
0.0
 40
0.0111111
 41
0.0111111
  0
VERTEX
  8
0
 10
0.509224
 20
0.418078
 30
0.0
 40
0.0111111
 41
0.0111111
  0
VERTEX
  8
0
 10
0.504124
 20
0.411621
 30
0.0
 40
0.0111111
 41
0.0111111
  0
VERTEX
  8
0
 10
0.485678
 20
0.394749
 30
0.0
 40
0.0111111
 41
0.0111111
  0
VERTEX
  8
0
 10
0.457357
 20
0.377658
 30
0.0
 40
0.0111111
 41
0.0111111
  0
VERTEX
  8
0
 10
0.42589
 20
0.367567
 30
0.0
 40
0.0111111
 41
0.0111111
  0
VERTEX
  8
0
 10
0.401042
 20
0.364746
 30
0.0
 40
0.0111111
 41
0.0111111
  0
VERTEX
  8
0
 10
0.39285
 20
0.365126
 30
0.0
 40
0.0111111
 41
0.0111111
  0
SEQEND
 8
0
  0
POLYLINE
  8
0
 62
     0
 66
     1
 10
0
 20
0
 30
0.0
 70
     1
 40
0.8
 41
0.8
  0
VERTEX
  8
0
 10
5.11893
 20
0.402289
 30
0.0
 40
0.0111111
 41
0.0111111
  0
VERTEX
  8
0
 10
5.11203
 20
0.402561
 30
0.0
 40
0.0111111
 41
0.0111111
  0
VERTEX
  8
0
 10
5.09158
 20
0.407281
 30
0.0
 40
0.0111111
 41
0.0111111
  0
VERTEX
  8
0
 10
5.06668
 20
0.419433
 30
0.0
 40
0.0111111
 41
0.0111111
  0
VERTEX
  8
0
 10
5.04574
 20
0.437608
 30
0.0
 40
0.0111111
 41
0.0111111
  0
VERTEX
  8
0
 10
5.03342
 20
0.45459
 30
0.0
 40
0.0111111
 41
0.0111111
  0
VERTEX
  8
0
 10
5.03054
 20
0.460775
 30
0.0
 40
0.0111111
 41
0.0111111
  0
VERTEX
  8
0
 10
5.02642
 20
0.469075
 30
0.0
 40
0.0111111
 41
0.0111111
  0
VERTEX
  8
0
 10
5.02072
 20
0.514432
 30
0.0
 40
0.0111111
 41
0.0111111
  0
VERTEX
  8
0
 10
5.03413
 20
0.558214
 30
0.0
 40
0.0111111
 41
0.0111111
  0
VERTEX
  8
0
 10
5.03961
 20
0.565647
 30
0.0
 40
0.0111111
 41
0.0111111
  0
VERTEX
  8
0
 10
5.04351
 20
0.571289
 30
0.0
 40
0.0111111
 41
0.0111111
  0
VERTEX
  8
0
 10
5.0586
 20
0.585883
 30
0.0
 40
0.0111111
 41
0.0111111
  0
VERTEX
  8
0
 10
5.08236
 20
0.600206
 30
0.0
 40
0.0111111
 41
0.0111111
  0
VERTEX
  8
0
 10
5.109
 20
0.60791
 30
0.0
 40
0.0111111
 41
0.0111111
  0
VERTEX
  8
0
 10
5.12993
 20
0.608996
 30
0.0
 40
0.0111111
 41
0.0111111
  0
VERTEX
  8
0
 10
5.13678
 20
0.608074
 30
0.0
 40
0.0111111
 41
0.0111111
  0
VERTEX
  8
0
 10
5.14344
 20
0.607314
 30
0.0
 40
0.0111111
 41
0.0111111
  0
VERTEX
  8
0
 10
5.16308
 20
0.601074
 30
0.0
 40
0.0111111
 41
0.0111111
  0
VERTEX
  8
0
 10
5.18664
 20
0.587403
 30
0.0
 40
0.0111111
 41
0.0111111
  0
VERTEX
  8
0
 10
5.20589
 20
0.568143
 30
0.0
 40
0.0111111
 41
0.0111111
  0
VERTEX
  8
0
 10
5.2169
 20
0.550726
 30
0.0
 40
0.0111111
 41
0.0111111
  0
VERTEX
  8
0
 10
5.2194
 20
0.544433
 30
0.0
 40
0.0111111
 41
0.0111111
  0
VERTEX
  8
0
 10
5.22293
 20
0.536025
 30
0.0
 40
0.0111111
 41
0.0111111
  0
VERTEX
  8
0
 10
5.22586
 20
0.490831
 30
0.0
 40
0.0111111
 41
0.0111111
  0
VERTEX
  8
0
 10
5.21024
 20
0.448296
 30
0.0
 40
0.0111111
 41
0.0111111
  0
VERTEX
  8
0
 10
5.20449
 20
0.441189
 30
0.0
 40
0.0111111
 41
0.0111111
  0
VERTEX
  8
0
 10
5.19943
 20
0.434788
 30
0.0
 40
0.0111111
 41
0.0111111
  0
VERTEX
  8
0
 10
5.16635
 20
0.411513
 30
0.0
 40
0.0111111
 41
0.0111111
  0
VERTEX
  8
0
 10
5.12706
 20
0.40191
 30
0.0
 40
0.0111111
 41
0.0111111
  0
VERTEX
  8
0
 10
5.11893
 20
0.402289
 30
0.0
 40
0.0111111
 41
0.0111111
  0
SEQEND
 8
0
  0
POLYLINE
  8
0
 62
     0
 66
     1
 10
0
 20
0
 30
0.0
 70
     1
 40
0.8
 41
0.8
  0
VERTEX
  8
0
 10
1.18191
 20
0.402289
 30
0.0
 40
0.0111111
 41
0.0111111
  0
VERTEX
  8
0
 10
1.17502
 20
0.402561
 30
0.0
 40
0.0111111
 41
0.0111111
  0
VERTEX
  8
0
 10
1.15457
 20
0.407281
 30
0.0
 40
0.0111111
 41
0.0111111
  0
VERTEX
  8
0
 10
1.12967
 20
0.419433
 30
0.0
 40
0.0111111
 41
0.0111111
  0
VERTEX
  8
0
 10
1.10872
 20
0.437608
 30
0.0
 40
0.0111111
 41
0.0111111
  0
VERTEX
  8
0
 10
1.09641
 20
0.45459
 30
0.0
 40
0.0111111
 41
0.0111111
  0
VERTEX
  8
0
 10
1.09353
 20
0.460775
 30
0.0
 40
0.0111111
 41
0.0111111
  0
VERTEX
  8
0
 10
1.08941
 20
0.469075
 30
0.0
 40
0.0111111
 41
0.0111111
  0
VERTEX
  8
0
 10
1.08371
 20
0.514432
 30
0.0
 40
0.0111111
 41
0.0111111
  0
VERTEX
  8
0
 10
1.09711
 20
0.558214
 30
0.0
 40
0.0111111
 41
0.0111111
  0
VERTEX
  8
0
 10
1.10259
 20
0.565647
 30
0.0
 40
0.0111111
 41
0.0111111
  0
VERTEX
  8
0
 10
1.1065
 20
0.571289
 30
0.0
 40
0.0111111
 41
0.0111111
  0
VERTEX
  8
0
 10
1.12158
 20
0.585883
 30
0.0
 40
0.0111111
 41
0.0111111
  0
VERTEX
  8
0
 10
1.14534
 20
0.600206
 30
0.0
 40
0.0111111
 41
0.0111111
  0
VERTEX
  8
0
 10
1.17198
 20
0.60791
 30
0.0
 40
0.0111111
 41
0.0111111
  0
VERTEX
  8
0
 10
1.19293
 20
0.608996
 30
0.0
 40
0.0111111
 41
0.0111111
  0
VERTEX
  8
0
 10
1.19976
 20
0.608074
 30
0.0
 40
0.0111111
 41
0.0111111
  0
VERTEX
  8
0
 10
1.20643
 20
0.607314
 30
0.0
 40
0.0111111
 41
0.0111111
  0
VERTEX
  8
0
 10
1.22607
 20
0.601074
 30
0.0
 40
0.0111111
 41
0.0111111
  0
VERTEX
  8
0
 10
1.24962
 20
0.587403
 30
0.0
 40
0.0111111
 41
0.0111111
  0
VERTEX
  8
0
 10
1.26888
 20
0.568143
 30
0.0
 40
0.0111111
 41
0.0111111
  0
VERTEX
  8
0
 10
1.27989
 20
0.550726
 30
0.0
 40
0.0111111
 41
0.0111111
  0
VERTEX
  8
0
 10
1.28239
 20
0.544433
 30
0.0
 40
0.0111111
 41
0.0111111
  0
VERTEX
  8
0
 10
1.28592
 20
0.536025
 30
0.0
 40
0.0111111
 41
0.0111111
  0
VERTEX
  8
0
 10
1.28885
 20
0.490831
 30
0.0
 40
0.0111111
 41
0.0111111
  0
VERTEX
  8
0
 10
1.27322
 20
0.448296
 30
0.0
 40
0.0111111
 41
0.0111111
  0
VERTEX
  8
0
 10
1.26747
 20
0.441189
 30
0.0
 40
0.0111111
 41
0.0111111
  0
VERTEX
  8
0
 10
1.26242
 20
0.434788
 30
0.0
 40
0.0111111
 41
0.0111111
  0
VERTEX
  8
0
 10
1.22933
 20
0.411513
 30
0.0
 40
0.0111111
 41
0.0111111
  0
VERTEX
  8
0
 10
1.19005
 20
0.40191
 30
0.0
 40
0.0111111
 41
0.0111111
  0
VERTEX
  8
0
 10
1.18191
 20
0.402289
 30
0.0
 40
0.0111111
 41
0.0111111
  0
SEQEND
 8
0
  0
POLYLINE
  8
0
 62
     0
 66
     1
 10
0
 20
0
 30
0.0
 70
     1
 40
0.8
 41
0.8
  0
VERTEX
  8
0
 10
2.1709
 20
0.295899
 30
0.0
 40
0.0111111
 41
0.0111111
  0
VERTEX
  8
0
 10
2.16444
 20
0.295628
 30
0.0
 40
0.0111111
 41
0.0111111
  0
VERTEX
  8
0
 10
2.14486
 20
0.298665
 30
0.0
 40
0.0111111
 41
0.0111111
  0
VERTEX
  8
0
 10
2.12131
 20
0.308322
 30
0.0
 40
0.0111111
 41
0.0111111
  0
VERTEX
  8
0
 10
2.10097
 20
0.323622
 30
0.0
 40
0.0111111
 41
0.0111111
  0
VERTEX
  8
0
 10
2.08469
 20
0.343317
 30
0.0
 40
0.0111111
 41
0.0111111
  0
VERTEX
  8
0
 10
2.07329
 20
0.366211
 30
0.0
 40
0.0111111
 41
0.0111111
  0
VERTEX
  8
0
 10
2.0676
 20
0.391004
 30
0.0
 40
0.0111111
 41
0.0111111
  0
VERTEX
  8
0
 10
2.06842
 20
0.41645
 30
0.0
 40
0.0111111
 41
0.0111111
  0
VERTEX
  8
0
 10
2.07368
 20
0.435547
 30
0.0
 40
0.0111111
 41
0.0111111
  0
VERTEX
  8
0
 10
2.07656
 20
0.441297
 30
0.0
 40
0.0111111
 41
0.0111111
  0
VERTEX
  8
0
 10
2.07997
 20
0.449815
 30
0.0
 40
0.0111111
 41
0.0111111
  0
VERTEX
  8
0
 10
2.09754
 20
0.472439
 30
0.0
 40
0.0111111
 41
0.0111111
  0
VERTEX
  8
0
 10
2.12815
 20
0.492785
 30
0.0
 40
0.0111111
 41
0.0111111
  0
VERTEX
  8
0
 10
2.16417
 20
0.502767
 30
0.0
 40
0.0111111
 41
0.0111111
  0
VERTEX
  8
0
 10
2.19243
 20
0.503907
 30
0.0
 40
0.0111111
 41
0.0111111
  0
VERTEX
  8
0
 10
2.20167
 20
0.502604
 30
0.0
 40
0.0111111
 41
0.0111111
  0
VERTEX
  8
0
 10
2.36393
 20
0.50255
 30
0.0
 40
0.0111111
 41
0.0111111
  0
VERTEX
  8
0
 10
3.9866
 20
0.502442
 30
0.0
 40
0.0111111
 41
0.0111111
  0
VERTEX
  8
0
 10
4.14887
 20
0.502171
 30
0.0
 40
0.0111111
 41
0.0111111
  0
VERTEX
  8
0
 10
4.15517
 20
0.501844
 30
0.0
 40
0.0111111
 41
0.0111111
  0
VERTEX
  8
0
 10
4.17404
 20
0.497179
 30
0.0
 40
0.0111111
 41
0.0111111
  0
VERTEX
  8
0
 10
4.1964
 20
0.485786
 30
0.0
 40
0.0111111
 41
0.0111111
  0
VERTEX
  8
0
 10
4.21511
 20
0.469185
 30
0.0
 40
0.0111111
 41
0.0111111
  0
VERTEX
  8
0
 10
4.22954
 20
0.448622
 30
0.0
 40
0.0111111
 41
0.0111111
  0
VERTEX
  8
0
 10
4.2391
 20
0.425347
 30
0.0
 40
0.0111111
 41
0.0111111
  0
VERTEX
  8
0
 10
4.24294
 20
0.400608
 30
0.0
 40
0.0111111
 41
0.0111111
  0
VERTEX
  8
0
 10
4.24056
 20
0.375651
 30
0.0
 40
0.0111111
 41
0.0111111
  0
VERTEX
  8
0
 10
4.23432
 20
0.35726
 30
0.0
 40
0.0111111
 41
0.0111111
  0
VERTEX
  8
0
 10
4.23118
 20
0.351725
 30
0.0
 40
0.0111111
 41
0.0111111
  0
VERTEX
  8
0
 10
4.22726
 20
0.343533
 30
0.0
 40
0.0111111
 41
0.0111111
  0
VERTEX
  8
0
 10
4.20861
 20
0.322211
 30
0.0
 40
0.0111111
 41
0.0111111
  0
VERTEX
  8
0
 10
4.17736
 20
0.303765
 30
0.0
 40
0.0111111
 41
0.0111111
  0
VERTEX
  8
0
 10
4.14128
 20
0.29541
 30
0.0
 40
0.0111111
 41
0.0111111
  0
VERTEX
  8
0
 10
4.11339
 20
0.29476
 30
0.0
 40
0.0111111
 41
0.0111111
  0
VERTEX
  8
0
 10
4.10428
 20
0.295899
 30
0.0
 40
0.0111111
 41
0.0111111
  0
VERTEX
  8
0
 10
2.1709
 20
0.295899
 30
0.0
 40
0.0111111
 41
0.0111111
  0
SEQEND
 8
0
  0
POLYLINE
  8
0
 62
     0
 66
     1
 10
0
 20
0
 30
0.0
 70
     1
 40
0.8
 41
0.8
  0
VERTEX
  8
0
 10
5.02436
 20
2.95535
 30
0.0
 40
0.0111111
 41
0.0111111
  0
VERTEX
  8
0
 10
5.02615
 20
2.96186
 30
0.0
 40
0.0111111
 41
0.0111111
  0
VERTEX
  8
0
 10
5.03526
 20
2.98042
 30
0.0
 40
0.0111111
 41
0.0111111
  0
VERTEX
  8
0
 10
5.0524
 20
3.00163
 30
0.0
 40
0.0111111
 41
0.0111111
  0
VERTEX
  8
0
 10
5.07438
 20
3.01774
 30
0.0
 40
0.0111111
 41
0.0111111
  0
VERTEX
  8
0
 10
5.09332
 20
3.02593
 30
0.0
 40
0.0111111
 41
0.0111111
  0
VERTEX
  8
0
 10
5.09993
 20
3.0274
 30
0.0
 40
0.0111111
 41
0.0111111
  0
VERTEX
  8
0
 10
5.10667
 20
3.02908
 30
0.0
 40
0.0111111
 41
0.0111111
  0
VERTEX
  8
0
 10
5.12793
 20
3.03011
 30
0.0
 40
0.0111111
 41
0.0111111
  0
VERTEX
  8
0
 10
5.1556
 20
3.02501
 30
0.0
 40
0.0111111
 41
0.0111111
  0
VERTEX
  8
0
 10
5.18093
 20
3.01286
 30
0.0
 40
0.0111111
 41
0.0111111
  0
VERTEX
  8
0
 10
5.19749
 20
2.99951
 30
0.0
 40
0.0111111
 41
0.0111111
  0
VERTEX
  8
0
 10
5.20199
 20
2.99414
 30
0.0
 40
0.0111111
 41
0.0111111
  0
VERTEX
  8
0
 10
5.20811
 20
2.98719
 30
0.0
 40
0.0111111
 41
0.0111111
  0
VERTEX
  8
0
 10
5.22542
 20
2.94461
 30
0.0
 40
0.0111111
 41
0.0111111
  0
VERTEX
  8
0
 10
5.22358
 20
2.89865
 30
0.0
 40
0.0111111
 41
0.0111111
  0
VERTEX
  8
0
 10
5.22021
 20
2.88997
 30
0.0
 40
0.0111111
 41
0.0111111
  0
VERTEX
  8
0
 10
5.21783
 20
2.88368
 30
0.0
 40
0.0111111
 41
0.0111111
  0
VERTEX
  8
0
 10
5.20719
 20
2.866
 30
0.0
 40
0.0111111
 41
0.0111111
  0
VERTEX
  8
0
 10
5.18832
 20
2.84631
 30
0.0
 40
0.0111111
 41
0.0111111
  0
VERTEX
  8
0
 10
5.16504
 20
2.83214
 30
0.0
 40
0.0111111
 41
0.0111111
  0
VERTEX
  8
0
 10
5.14551
 20
2.82553
 30
0.0
 40
0.0111111
 41
0.0111111
  0
VERTEX
  8
0
 10
5.13883
 20
2.8246
 30
0.0
 40
0.0111111
 41
0.0111111
  0
VERTEX
  8
0
 10
5.13206
 20
2.82357
 30
0.0
 40
0.0111111
 41
0.0111111
  0
VERTEX
  8
0
 10
5.11106
 20
2.82422
 30
0.0
 40
0.0111111
 41
0.0111111
  0
VERTEX
  8
0
 10
5.08425
 20
2.83137
 30
0.0
 40
0.0111111
 41
0.0111111
  0
VERTEX
  8
0
 10
5.06022
 20
2.84526
 30
0.0
 40
0.0111111
 41
0.0111111
  0
VERTEX
  8
0
 10
5.04482
 20
2.85954
 30
0.0
 40
0.0111111
 41
0.0111111
  0
VERTEX
  8
0
 10
5.04081
 20
2.86507
 30
0.0
 40
0.0111111
 41
0.0111111
  0
VERTEX
  8
0
 10
5.03597
 20
2.87142
 30
0.0
 40
0.0111111
 41
0.0111111
  0
VERTEX
  8
0
 10
5.02203
 20
2.90831
 30
0.0
 40
0.0111111
 41
0.0111111
  0
VERTEX
  8
0
 10
5.02208
 20
2.94775
 30
0.0
 40
0.0111111
 41
0.0111111
  0
VERTEX
  8
0
 10
5.02436
 20
2.95535
 30
0.0
 40
0.0111111
 41
0.0111111
  0
SEQEND
 8
0
  0
POLYLINE
  8
0
 62
     0
 66
     1
 10
0
 20
0
 30
0.0
 70
     1
 40
0.8
 41
0.8
  0
VERTEX
  8
0
 10
4.07324
 20
2.21485
 30
0.0
 40
0.0111111
 41
0.0111111
  0
VERTEX
  8
0
 10
4.06543
 20
2.2155
 30
0.0
 40
0.0111111
 41
0.0111111
  0
VERTEX
  8
0
 10
4.04249
 20
2.22271
 30
0.0
 40
0.0111111
 41
0.0111111
  0
VERTEX
  8
0
 10
4.01568
 20
2.23958
 30
0.0
 40
0.0111111
 41
0.0111111
  0
VERTEX
  8
0
 10
3.99501
 20
2.26367
 30
0.0
 40
0.0111111
 41
0.0111111
  0
VERTEX
  8
0
 10
3.9846
 20
2.28532
 30
0.0
 40
0.0111111
 41
0.0111111
  0
VERTEX
  8
0
 10
3.98286
 20
2.29292
 30
0.0
 40
0.0111111
 41
0.0111111
  0
VERTEX
  8
0
 10
3.9815
 20
2.2985
 30
0.0
 40
0.0111111
 41
0.0111111
  0
VERTEX
  8
0
 10
3.9796
 20
2.32688
 30
0.0
 40
0.0111111
 41
0.0111111
  0
VERTEX
  8
0
 10
3.97999
 20
2.35547
 30
0.0
 40
0.0111111
 41
0.0111111
  0
VERTEX
  8
0
 10
3.97976
 20
2.36111
 30
0.0
 40
0.0111111
 41
0.0111111
  0
VERTEX
  8
0
 10
3.97971
 20
2.37283
 30
0.0
 40
0.0111111
 41
0.0111111
  0
VERTEX
  8
0
 10
3.9796
 20
2.48969
 30
0.0
 40
0.0111111
 41
0.0111111
  0
VERTEX
  8
0
 10
3.97944
 20
2.50136
 30
0.0
 40
0.0111111
 41
0.0111111
  0
VERTEX
  8
0
 10
3.97803
 20
2.50982
 30
0.0
 40
0.0111111
 41
0.0111111
  0
VERTEX
  8
0
 10
3.98025
 20
2.53614
 30
0.0
 40
0.0111111
 41
0.0111111
  0
VERTEX
  8
0
 10
3.99306
 20
2.56847
 30
0.0
 40
0.0111111
 41
0.0111111
  0
VERTEX
  8
0
 10
4.01557
 20
2.59506
 30
0.0
 40
0.0111111
 41
0.0111111
  0
VERTEX
  8
0
 10
4.03754
 20
2.60975
 30
0.0
 40
0.0111111
 41
0.0111111
  0
VERTEX
  8
0
 10
4.04563
 20
2.61262
 30
0.0
 40
0.0111111
 41
0.0111111
  0
VERTEX
  8
0
 10
4.053
 20
2.61561
 30
0.0
 40
0.0111111
 41
0.0111111
  0
VERTEX
  8
0
 10
4.07731
 20
2.61947
 30
0.0
 40
0.0111111
 41
0.0111111
  0
VERTEX
  8
0
 10
4.10949
 20
2.61615
 30
0.0
 40
0.0111111
 41
0.0111111
  0
VERTEX
  8
0
 10
4.13926
 20
2.60335
 30
0.0
 40
0.0111111
 41
0.0111111
  0
VERTEX
  8
0
 10
4.15858
 20
2.58817
 30
0.0
 40
0.0111111
 41
0.0111111
  0
VERTEX
  8
0
 10
4.16363
 20
2.58192
 30
0.0
 40
0.0111111
 41
0.0111111
  0
VERTEX
  8
0
 10
4.16824
 20
2.57656
 30
0.0
 40
0.0111111
 41
0.0111111
  0
VERTEX
  8
0
 10
4.18349
 20
2.54508
 30
0.0
 40
0.0111111
 41
0.0111111
  0
VERTEX
  8
0
 10
4.18847
 20
2.51036
 30
0.0
 40
0.0111111
 41
0.0111111
  0
VERTEX
  8
0
 10
4.18804
 20
2.50336
 30
0.0
 40
0.0111111
 41
0.0111111
  0
VERTEX
  8
0
 10
4.18782
 20
2.48731
 30
0.0
 40
0.0111111
 41
0.0111111
  0
VERTEX
  8
0
 10
4.18642
 20
2.32639
 30
0.0
 40
0.0111111
 41
0.0111111
  0
VERTEX
  8
0
 10
4.18614
 20
2.31028
 30
0.0
 40
0.0111111
 41
0.0111111
  0
VERTEX
  8
0
 10
4.18571
 20
2.30236
 30
0.0
 40
0.0111111
 41
0.0111111
  0
VERTEX
  8
0
 10
4.17882
 20
2.27869
 30
0.0
 40
0.0111111
 41
0.0111111
  0
VERTEX
  8
0
 10
4.16189
 20
2.25108
 30
0.0
 40
0.0111111
 41
0.0111111
  0
VERTEX
  8
0
 10
4.13747
 20
2.22982
 30
0.0
 40
0.0111111
 41
0.0111111
  0
VERTEX
  8
0
 10
4.11529
 20
2.21912
 30
0.0
 40
0.0111111
 41
0.0111111
  0
VERTEX
  8
0
 10
4.10753
 20
2.21733
 30
0.0
 40
0.0111111
 41
0.0111111
  0
VERTEX
  8
0
 10
4.10471
 20
2.21669
 30
0.0
 40
0.0111111
 41
0.0111111
  0
VERTEX
  8
0
 10
4.07611
 20
2.21463
 30
0.0
 40
0.0111111
 41
0.0111111
  0
VERTEX
  8
0
 10
4.07324
 20
2.21485
 30
0.0
 40
0.0111111
 41
0.0111111
  0
SEQEND
 8
0
  0
ENDSEC
  0
EOF
